<?xml version="1.0" encoding="utf-8"?>
<!-- Generator: Adobe Illustrator 16.0.0, SVG Export Plug-In . SVG Version: 6.00 Build 0)  -->
<svg version="1.2" baseProfile="tiny" id="Layer_1" xmlns="http://www.w3.org/2000/svg" xmlns:xlink="http://www.w3.org/1999/xlink"
	 x="0px" y="0px" width="126.282px" height="23.943px" viewBox="0 0 126.282 23.943" xml:space="preserve">
<g>
	<path fill="#331618" d="M0,0.677v22.622h22.621V0.677H0z M15.661,16.338H6.96v-8.7h8.701V16.338z"/>
	<rect x="29.582" y="7.638" fill="#331618" width="8.7" height="8.7"/>
	<g>
		<path fill="#331618" d="M61.709,11.142c2.094-1.219,2.875-2.531,2.875-4.561c0-2.819-2.113-5.904-6.739-5.904H45.242
			l-0.005,22.617h12.625c5.566,0,7.926-3.447,7.926-6.697C65.788,13.879,64.351,12.118,61.709,11.142z M52.141,5.917h4.146
			c1.78,0,1.862,1.477,1.862,1.741c0,1.145-0.668,1.925-2.343,1.925h-3.665V5.917z M59.04,16c0,1.028-0.73,2.189-2.355,2.189h-4.561
			v-4.063h4.792C59.249,14.126,59.04,16.476,59.04,16z"/>
		<path fill="#331618" d="M80.242,0.677h-7.287l-8.32,22.575h7.423l0.928-3.366h6.981l1.096,3.384h7.479L80.242,0.677z
			 M74.378,14.927l1.924-7.545l2.188,7.545H74.378z"/>
		<path fill="#331618" d="M100.166,7.396h6.948c0-3.836-2.886-7.396-9.735-7.396c-7.511,0-9.838,4.146-9.838,7.18
			c0,4.893,5.988,6.194,6.174,6.252c0.895,0.282,4.61,1.277,5.539,1.609c0.804,0.287,1.572,0.931,1.572,1.791
			c0,1.321-1.572,1.955-2.883,1.955c-0.841,0-3.667-0.279-3.667-3.274h-7.179c0,3.978,2.736,8.43,10.414,8.43
			c8.475,0,10.246-5.055,10.246-7.742c0-2.193-1.242-4.626-4.109-5.785c-1.725-0.696-4.585-1.307-6.021-1.726
			c-0.723-0.212-3.135-0.701-3.135-2.173c0-1.885,3.108-1.641,2.654-1.641C98.55,4.876,100.166,5.666,100.166,7.396"/>
		<polygon fill="#331618" points="108.938,0.672 126.282,0.672 126.282,6.642 115.869,6.642 115.869,10.622 125.155,10.622 
			125.155,16.327 115.835,16.327 115.835,23.292 108.904,23.292 		"/>
	</g>
</g>
</svg>
