<?xml version="1.0" encoding="utf-8"?>
<!-- Generator: Adobe Illustrator 16.0.0, SVG Export Plug-In . SVG Version: 6.00 Build 0)  -->
<svg version="1.2" baseProfile="tiny" id="Layer_1" xmlns="http://www.w3.org/2000/svg" xmlns:xlink="http://www.w3.org/1999/xlink"
	 x="0px" y="0px" width="73.141px" height="24.318px" viewBox="0 0 73.141 24.318" xml:space="preserve">
<g>
	<g>
		<path fill="#331618" d="M27.669,1.899c3.2,0.217,4.046,2.98,4.046,3.998c0.006,3.063-0.955,5.407-5.502,5.267V1.899
			C26.252,1.899,27.314,1.876,27.669,1.899 M9.531,1.887c3.201,0.218,4.043,2.981,4.047,3.999c0.006,3.061-0.955,5.409-5.504,5.268
			V1.887C8.114,1.889,9.179,1.862,9.531,1.887 M8.053,12.208h1.261c2.913-0.082,4.603,1.571,4.796,4.548
			c0.194,3.013-1.034,5.532-4.148,5.566c-1.352,0.02-1.908-0.486-1.908-2.012V12.208z M0,23.516h10.369
			c7.207-0.248,9.236-2.637,9.236-6.342c0-3.86-3.386-5.056-5.619-5.65c1.244-0.245,4.938-1.718,4.885-5.206
			c-0.076-5.018-6.628-5.804-8.91-5.651H0.006v0.649C1.487,1.418,2.937,1.031,2.937,3.5L2.932,20.56
			c0,2.067-1.125,2.161-2.932,2.363V23.516z M37.252,19.521c0.932,1.904,3.264,4.736,7.143,4.795
			c2.137,0.039,4.121-0.534,6.475-2.766c0.844,0.737,2.031,1.965,3.854,2.065c0.51,0.032,2.082-0.267,3.361-1.89
			c1.08-1.367,1.307-2.414,1.33-2.451l-0.558-0.418c-0.362,0.742-0.966,1.295-1.719,1.295c-1.416,0-1.495-0.553-3.15-2.207
			c1.65-2.412,1.553-3.66,2.451-4.937c0.908-1.296,1.683-2.027,3.22-2.082v-0.648h-5.687v0.575c1.136-0.085,1.317,0.816,1.173,1.555
			c-0.299,1.527-1.893,4.641-2.101,4.416c-2.416-2.559-5.394-8.121-5.394-8.121c2.171-1.189,3.047-3.675,3.047-4.308
			c0-2.158-1.134-3.977-4.308-4.37c-1.927-0.251-5.566,1.362-5.635,4.722c-0.034,1.52,0.905,3.042,1.89,4.938
			c-2.563,1.01-4.575,2.997-5.425,5.577c-1.001-2.371-3.763-3.316-5.563-3.806h0.071c1.353-0.438,5.453-1.257,5.28-5.074
			c-0.232-5.009-6.64-5.869-8.924-5.716h-9.952v0.649c1.48,0.102,2.932-0.284,2.932,2.183l0.004,17.13
			c0,2.065-1.119,2.093-2.925,2.295l-0.008,0.593h10.374C34.111,23.567,36.471,21.976,37.252,19.521 M26.188,12.237h1.262
			c3.29-0.279,4.482,2.104,4.656,4.582c0.209,2.993-0.986,5.569-4.007,5.569c-1.354,0-1.91-0.486-1.91-2.015L26.188,12.237z
			 M42.154,17.317c-1.574-2.981-0.409-5.109,1.121-6.405c0,0,3.011,6.09,6.161,9.24C48.209,21.236,44.5,21.764,42.154,17.317
			 M45.34,4.049c-0.01-0.879,0.668-1.895,1.854-1.895c2.051,0,2.438,2.162,1.925,3.226c-0.861,1.797-2.099,2.239-2.134,2.17
			C46.286,6.393,45.352,5.119,45.34,4.049 M53.797,0.653v5.739h0.613c0.245-2.907,1.931-4.699,3.637-4.699L60.918,1.7v19.013
			c0.143,1.607-1.293,2.207-3.045,2.195l0.007,0.607h11.374l-0.006-0.612c-1.804-0.205-3.285-0.159-3.266-1.882L65.986,1.7h2.663
			c1.708,0,3.824,1.47,3.824,4.692h0.667V0.653H53.797z"/>
	</g>
</g>
</svg>
