<?xml version="1.0" encoding="utf-8"?>
<!-- Generator: Adobe Illustrator 16.0.0, SVG Export Plug-In . SVG Version: 6.00 Build 0)  -->
<svg version="1.2" baseProfile="tiny" id="Layer_1" xmlns="http://www.w3.org/2000/svg" xmlns:xlink="http://www.w3.org/1999/xlink"
	 x="0px" y="0px" width="108.689px" height="115.797px" viewBox="0 0 108.689 115.797" xml:space="preserve">
<g>
	<g>
		<path fill="#321719" d="M12.276,112.448H8.226l-1.834,3.08H4.219l8.472-13.964h2.391l-1.088,13.964h-1.991L12.276,112.448z
			 M12.478,110.104l0.493-5.618l-3.354,5.618H12.478z"/>
		<polygon fill="#321719" points="16.062,115.526 20.944,101.564 28.442,101.564 27.612,103.906 22.196,103.906 21.081,107.058 
			26.331,107.058 25.497,109.401 20.259,109.401 18.918,113.193 24.784,113.193 23.961,115.526 		"/>
		<path fill="#321719" d="M28.43,115.526h-2.084l4.875-13.962h4.526c0.783,0,1.369,0.113,1.759,0.329
			c0.392,0.218,0.664,0.624,0.823,1.204c0.146,0.589,0.146,1.292-0.018,2.13c-0.243,1.188-0.684,2.167-1.354,2.938
			c-0.657,0.767-1.542,1.253-2.626,1.431c0.201,0.337,0.36,0.769,0.489,1.303c0.263,1.097,0.478,2.637,0.667,4.628h-2.258
			c-0.033-0.781-0.144-2.009-0.348-3.682c-0.117-0.898-0.308-1.504-0.577-1.813c-0.164-0.19-0.493-0.278-0.989-0.278h-0.862
			L28.43,115.526z M31.179,107.669h1.13c1.149,0,1.927-0.09,2.341-0.274c0.405-0.184,0.75-0.473,1.041-0.871
			c0.287-0.392,0.467-0.806,0.559-1.244c0.097-0.506,0.021-0.892-0.226-1.143c-0.172-0.155-0.563-0.23-1.186-0.23h-2.341
			L31.179,107.669z"/>
		<path fill="#321719" d="M39.114,110.05c0.159-0.825,0.423-1.7,0.774-2.613c0.484-1.227,1.056-2.295,1.705-3.199
			c0.669-0.898,1.424-1.613,2.26-2.141c0.842-0.527,1.728-0.792,2.677-0.792c1.257,0,2.171,0.541,2.736,1.617
			c0.564,1.076,0.669,2.505,0.324,4.271c-0.291,1.483-0.823,2.909-1.598,4.289c-0.771,1.391-1.671,2.45-2.685,3.195
			c-1.012,0.742-2.062,1.119-3.149,1.119c-0.955,0-1.695-0.298-2.216-0.901c-0.534-0.582-0.85-1.319-0.946-2.194
			C38.904,111.83,38.942,110.944,39.114,110.05 M41.179,109.991c-0.188,0.968-0.131,1.771,0.168,2.425
			c0.306,0.647,0.812,0.972,1.512,0.972c0.569,0,1.177-0.255,1.794-0.768c0.627-0.514,1.217-1.293,1.77-2.335
			c0.542-1.039,0.918-2.049,1.11-3.041c0.215-1.1,0.159-1.969-0.15-2.593c-0.314-0.626-0.807-0.942-1.473-0.942
			c-1.038,0-2.005,0.658-2.917,1.969C42.088,106.988,41.484,108.43,41.179,109.991"/>
		<path fill="#321719" d="M50.408,111.026l2.007-0.139c-0.144,0.869-0.146,1.455-0.012,1.755c0.218,0.503,0.737,0.745,1.578,0.745
			c0.694,0,1.241-0.167,1.614-0.506c0.381-0.34,0.614-0.742,0.707-1.226c0.08-0.412,0.02-0.765-0.176-1.049
			c-0.139-0.21-0.562-0.553-1.27-1.022c-0.699-0.469-1.21-0.862-1.516-1.179c-0.31-0.316-0.516-0.727-0.623-1.229
			c-0.106-0.509-0.098-1.091,0.028-1.771c0.234-1.177,0.732-2.157,1.51-2.936c0.776-0.775,1.753-1.165,2.926-1.165
			c1.197,0,2.052,0.386,2.554,1.156c0.511,0.775,0.673,1.799,0.493,3.078l-2.051,0.126c0.084-0.681,0-1.189-0.23-1.541
			c-0.234-0.36-0.646-0.54-1.228-0.54c-0.584,0-1.029,0.142-1.334,0.418c-0.312,0.281-0.5,0.635-0.59,1.06
			c-0.073,0.4-0.019,0.737,0.155,0.993c0.174,0.272,0.611,0.641,1.305,1.105c1.046,0.691,1.679,1.259,1.918,1.69
			c0.36,0.637,0.444,1.455,0.247,2.456c-0.247,1.235-0.805,2.291-1.69,3.168c-0.89,0.882-1.969,1.322-3.239,1.322
			c-0.878,0-1.605-0.21-2.167-0.607c-0.563-0.408-0.907-0.962-1.031-1.688C50.163,112.785,50.207,111.966,50.408,111.026"/>
		<path fill="#321719" d="M61.63,115.526h-2.097l4.884-13.962h4.111c0.739,0,1.294,0.122,1.667,0.364
			c0.386,0.235,0.643,0.631,0.779,1.184c0.146,0.547,0.138,1.208-0.011,1.975c-0.137,0.708-0.37,1.391-0.696,2.065
			c-0.33,0.67-0.68,1.197-1.044,1.604c-0.377,0.404-0.742,0.708-1.114,0.909c-0.373,0.209-0.851,0.372-1.431,0.481
			c-0.339,0.059-0.958,0.092-1.863,0.092h-1.336L61.63,115.526z M64.303,107.896h0.645c1.107,0,1.864-0.086,2.273-0.278
			c0.409-0.185,0.755-0.494,1.047-0.909c0.303-0.415,0.504-0.867,0.59-1.365c0.077-0.335,0.075-0.607,0-0.821
			c-0.062-0.214-0.192-0.373-0.358-0.465c-0.177-0.101-0.612-0.15-1.294-0.15h-1.509L64.303,107.896z"/>
		<path fill="#321719" d="M76.042,112.448h-4.045l-1.843,3.08h-2.171l8.476-13.964h2.393l-1.098,13.964h-1.989L76.042,112.448z
			 M76.243,110.104l0.493-5.618l-3.35,5.618H76.243z"/>
		<path fill="#321719" d="M88.135,110.532l2.031,0.439c-0.718,1.56-1.572,2.756-2.542,3.587c-0.994,0.811-2.041,1.238-3.146,1.238
			c-1.241,0-2.111-0.52-2.609-1.55c-0.494-1.032-0.562-2.528-0.168-4.49c0.31-1.587,0.828-3.049,1.564-4.366
			c0.732-1.319,1.579-2.335,2.556-3.03c0.969-0.703,1.941-1.056,2.925-1.056c1.102,0,1.916,0.404,2.45,1.213
			c0.521,0.809,0.709,1.905,0.548,3.301l-2.061,0.266c0.042-0.816-0.056-1.401-0.312-1.764c-0.241-0.364-0.626-0.544-1.158-0.544
			c-0.583,0-1.176,0.238-1.771,0.73c-0.598,0.479-1.147,1.238-1.654,2.272c-0.505,1.03-0.863,2.061-1.056,3.082
			c-0.224,1.123-0.203,1.996,0.066,2.609c0.265,0.611,0.699,0.917,1.286,0.917c0.536,0,1.081-0.238,1.621-0.729
			C87.254,112.187,87.723,111.47,88.135,110.532"/>
		<polygon fill="#321719" points="90.889,115.526 95.771,101.564 103.273,101.564 102.444,103.906 97.027,103.906 95.915,107.058 
			101.154,107.058 100.331,109.401 95.096,109.401 93.747,113.193 99.617,113.193 98.797,115.526 		"/>
	</g>
	<g>
		<path fill="#321719" d="M87.526,90.357c0.209-0.411,0.313-0.876,0.313-1.387c0-0.607-0.136-1.083-0.41-1.428
			c-0.275-0.344-0.706-0.52-1.298-0.52h-2.653l-0.585,4.406h2.137c0.829,0,1.407-0.08,1.711-0.23
			C87.057,91.048,87.316,90.766,87.526,90.357z"/>
		<path fill="#321719" d="M87.151,83.871c0.322-0.15,0.571-0.412,0.756-0.789c0.179-0.373,0.268-0.8,0.268-1.279
			c0-0.388-0.064-0.719-0.209-0.988c-0.13-0.271-0.301-0.455-0.507-0.547c-0.207-0.088-0.656-0.134-1.349-0.134h-1.715L83.874,84.1
			h1.689C86.301,84.1,86.831,84.024,87.151,83.871z"/>
		<path fill="#321719" d="M108.689,99.081l-0.016-29.158H0.75v-4.712h107.922l-0.002-4.921H0.75v-4.624h107.916l-0.002-4.913H0.75
			v-4.72h107.912l-0.002-4.865H0.75v-4.722h107.907l-0.003-4.865H0.75v-4.72h107.902l-0.002-4.869H0.75v-4.718h107.897L108.639,0
			L90.732,16.524H0v6.218h83.994l-3.65,3.369H0v6.22h73.603l-3.647,3.365H0v6.222h63.214l-3.647,3.365H0v6.22h52.827l-3.698,3.413H0
			v6.124h42.492l-3.707,3.421H0v6.212h32.053L1.396,98.964L108.689,99.081z M105.539,77.309l-0.376,2.825h-5.751L98.9,83.966h5.568
			l-0.372,2.823h-5.568l-0.611,4.544h6.213l-0.372,2.818h-8.436l2.246-16.843H105.539z M96.669,77.005l-5.777,17.419h-1.162
			l5.772-17.419H96.669z M82.563,77.309h3.689c0.997,0,1.694,0.082,2.106,0.245c0.66,0.24,1.155,0.693,1.504,1.361
			c0.362,0.666,0.536,1.486,0.536,2.467c0,0.986-0.174,1.813-0.523,2.479c-0.335,0.67-0.848,1.164-1.532,1.512
			c0.534,0.23,0.967,0.645,1.28,1.242c0.313,0.599,0.474,1.298,0.474,2.098c0,1.083-0.197,2.069-0.573,2.955
			c-0.388,0.88-0.89,1.521-1.513,1.905c-0.611,0.386-1.492,0.578-2.619,0.578h-5.081L82.563,77.309z"/>
	</g>
</g>
</svg>
