<?xml version="1.0" encoding="utf-8"?>
<!-- Generator: Adobe Illustrator 16.0.0, SVG Export Plug-In . SVG Version: 6.00 Build 0)  -->
<svg version="1.2" baseProfile="tiny" id="Layer_1" xmlns="http://www.w3.org/2000/svg" xmlns:xlink="http://www.w3.org/1999/xlink"
	 x="0px" y="0px" width="143px" height="45.371px" viewBox="0 0 143 45.371" xml:space="preserve">
<g>
	<g>
		<path fill="#331819" d="M97.728,7.365c0,0,1.031,0.377,1.461,2.512c0.427,2.137-0.098,2.597-0.051,3.896
			c0.051,1.299,0.734,2.836,2.925,2.818c2.188-0.018,2.873-1.655,2.871-3.707c0-2.529-1.589-5.557-0.872-8.391
			c0.407-1.621,2.242-3.836,3.126-4.39c0.189-0.119,0.378-0.126,0.458-0.071c0.193,0.135,0.04,0.416,0.04,0.416
			s-0.617,1.26-0.769,2.679c-0.314,3.048,0.393,4.876,1.843,7.452c1.692,2.998,3.062,5.909,2.428,9.498
			c-0.612,3.477-2.792,5.604-7.683,5.621c-4.923,0.016-6.954-1.537-7.891-4.102c-1.396-3.827,0.468-6.661,1.222-8.781
			C97.885,9.877,97.728,7.365,97.728,7.365"/>
	</g>
	<path fill="#331819" d="M142.511,41.819c0.318,0.346,0.489,0.807,0.489,1.303c0,0.511-0.182,0.971-0.509,1.312
		c-0.338,0.353-0.772,0.542-1.22,0.542c-0.461,0-0.892-0.201-1.225-0.562c-0.322-0.352-0.495-0.812-0.495-1.292
		c0-0.333,0.08-0.655,0.251-0.965c0.309-0.562,0.848-0.895,1.469-0.895C141.746,41.263,142.177,41.455,142.511,41.819
		 M140.273,42.007c-0.281,0.302-0.436,0.701-0.436,1.11c0,0.41,0.143,0.791,0.413,1.083c0.275,0.301,0.642,0.469,1.021,0.469
		c0.375,0,0.735-0.161,1.019-0.455c0.273-0.279,0.425-0.668,0.425-1.067c0-0.443-0.14-0.815-0.408-1.112
		c-0.28-0.308-0.634-0.466-1.03-0.466C140.886,41.568,140.543,41.717,140.273,42.007 M141.31,42.054
		c0.546,0,0.816,0.199,0.816,0.592c0,0.271-0.157,0.477-0.418,0.548l0.428,0.919h-0.519l-0.366-0.843h-0.225v0.843h-0.467v-2.059
		H141.31L141.31,42.054z M141.026,42.968h0.225c0.268,0,0.396-0.087,0.396-0.29c0-0.216-0.137-0.308-0.417-0.308h-0.203V42.968
		L141.026,42.968z"/>
	<g>
		<path fill="#331819" d="M121.128,21.52c0,0-0.688-0.097-0.688,0.537v4.172c0,0-0.069,1.146,1.147,1.146h4.48
			c0,0,0.621,0.121,0.621-0.68v-4.322c0,0,0.045-0.854-0.986-0.854H121.128L121.128,21.52z"/>
		<path fill="#331819" d="M14.187,21.43c0,0-4.95-0.203-8.732,0c0,0-5.455,0.198-5.455,4.878v14.789c0,0-0.05,2.981,3.881,3.848
			c0,0,3.672,0.959,9.275,0c0,0,2.951-0.73,2.951-3.448v-2.965c0,0,0-1.107-1.573-1.107s-1.577,1.107-1.577,1.107v2.565
			c0,0-0.29,1.81-2.602,1.81c-3.286,0-3.428-1.81-3.428-1.81V25.908c0,0-0.092-2.473,3.38-2.473c3.045,0,2.606,1.761,2.606,1.761
			v3.522c0,0-0.198,1.51,1.62,1.51c1.82,0,1.522-1.56,1.522-1.56v-5.681C16.056,22.988,16.311,21.811,14.187,21.43"/>
	</g>
	<path fill="#331819" d="M17.688,21.64c0,0-0.884,0.029-0.884,0.634c0,0.601,0.329,0.828,0.329,0.828l0.814,0.526
		c0,0,0.422,0.115,0.422,0.946v17.84c0,0-0.018,0.528-0.531,0.982c0,0-0.477,0.303-0.482,0.868c-0.006,0.679,0.7,0.679,0.7,0.679
		h6.971c0,0,0.781,0.11,0.807-0.679c0.023-0.521-0.519-0.812-0.62-0.891c-0.196-0.148-0.63-0.43-0.63-0.96V33.7
		c0,0-0.075-1.811,2.027-1.811c2.102,0,2.138,1.774,2.138,1.774v8.75c0,0,0.037,0.454-0.59,0.982c0,0-0.59,0.49-0.59,0.868
		c0,0-0.075,0.679,0.701,0.679h6.489c0,0,0.697,0.041,0.697-0.679c0-0.717-0.624-0.868-0.624-0.868s-0.628-0.3-0.628-0.982V31.965
		c0,0,0.109-3.923-4.605-3.923c0,0-3.096-0.11-5.016,2.568v-7.997c0,0,0.072-0.974-0.813-0.974H17.688L17.688,21.64z"/>
	<path fill="#331819" d="M46.897,28.669c2.807,0,2.656,2.28,2.656,2.28v11.465c0,0-0.018,1.009,1.634,0.982
		c1.595,0.022,1.562-0.982,1.562-0.982v-10.3c0-1.315-0.589-1.62-0.589-1.62l-0.886-0.679c0,0-0.406-0.189-0.406-0.681
		c0-0.488,0.7-0.466,0.7-0.466h6.121c0.728,0.009,0.627,0.693,0.627,0.693v3.094l0.104,0.002l1.149-3.019
		c0.415-0.836,1.07-0.771,1.07-0.771h3.317c0.773,0,0.848,0.734,0.848,0.734v4.261c0,0.719-1.069,0.83-1.069,0.83
		c-1.221,0-1.809-0.83-1.809-0.83s-0.995-0.906-2.396-0.565c-1.398,0.339-1.215,1.889-1.215,1.889v7.427
		c0,0.757,0.737,0.982,0.737,0.982s0.627,0.228,0.627,0.867c0,0.643-0.775,0.681-0.775,0.681H44.945
		c-0.735,0-0.625-0.681-0.625-0.681v-0.979l-3.281,1.66c-4.572,1.473-4.72-1.926-4.72-1.926V38.53c0.036-1.85,1.73-2.335,1.73-2.335
		c0.775-0.346,3.728-1.25,3.728-1.25c2.468-0.862,2.174-3.316,2.174-3.316s0.146-1.627-1.475-1.627
		c-1.625,0-1.106,2.342-1.106,2.342c0.07,1.018-0.479,1.32-0.479,1.32c-1.323,1.244-3.098,1.281-3.098,1.281
		c-1.288,0.153-1.397-1.281-1.397-1.281c-0.041-1.171,0-1.884,0-1.884c0.184-3.358,2.837-3.111,2.837-3.111H46.897L46.897,28.669z
		 M44.321,36.645c0,0,0.073-1.807-1.914-0.3c0,0-1,0.489-1,1.847v3.995c0,0,0.074,1.587,1.81,0.228c0,0,1.104-0.942,1.104-1.692
		V36.645L44.321,36.645z"/>
	<path fill="#331819" d="M64.621,35.928c0,0-1.329-0.114-1.734,1.017l-0.883,2.114c0,0-0.554,1.096,0.588,1.096h4.61
		c0,0,1.033,0.075,1.362-0.681l1.069-2.489c0,0,0.552-1.057-0.626-1.057H64.621L64.621,35.928z"/>
	<path fill="#331819" d="M84.001,21.64c3.464,0,3.573,2.634,3.573,2.634c0.146,1.283,0.038,4.396,0.038,4.396
		c0,2.49-4.24,3.295-4.24,3.295c5.38,1.167,5.457,3.964,5.457,3.964c0.182,4.562-0.035,5.168-0.035,5.168
		c-0.559,3.658-4.87,3.847-4.87,3.847H71.099c-0.879,0-0.769-0.679-0.769-0.679c0-0.491,0.664-0.868,0.664-0.868
		c0.554-0.601,0.554-0.982,0.554-0.982V25.062c0-1.583-0.958-1.812-0.958-1.812s-0.515-0.148-0.515-0.977
		c0-0.834,1.024-0.634,1.024-0.634H84.001L84.001,21.64z M78.613,23.723c0,0-0.7-0.095-0.7,0.738v5.961c0,0-0.253,0.901,1.147,0.901
		c0,0,3.244,0.177,3.393-2.653v-3.038c0,0,0.182-1.909-1.553-1.909H78.613L78.613,23.723z M78.579,33.515
		c0,0-0.666-0.229-0.666,0.792v8.107c0,0-0.106,0.72,0.7,0.72h1.809c0,0,2.031,0,2.031-1.396v-5.622
		C82.453,36.115,82.744,33.515,78.579,33.515"/>
	<path fill="#331819" d="M102.335,28.689h-3.313c0,0-0.626-0.138-1.072,0.768l-1.195,3.014l-0.06,0.005v-3.093
		c0,0,0.082-0.695-0.628-0.693h-6.114c0,0-0.699-0.024-0.699,0.465c0,0.488,0.403,0.678,0.403,0.678l0.884,0.68
		c0,0,0.589,0.305,0.589,1.625v10.296c0,0,0.146,0.397-0.996,1.115c0,0-0.589,0.226-0.589,0.716c0,0.491,0.221,0.681,0.589,0.681
		l0.958,0.019h6.197c0,0,0.772-0.038,0.772-0.681s-0.623-0.867-0.623-0.867s-0.743-0.227-0.743-0.982v-7.426
		c0,0-0.184-1.551,1.214-1.891c1.407-0.339,2.4,0.565,2.4,0.565s0.589,0.83,1.803,0.83c0,0,1.075-0.112,1.075-0.83v-4.264
		C103.187,29.418,103.107,28.689,102.335,28.689"/>
	<path fill="#331819" d="M116.618,28.669h-8.514c0,0-4.167-0.287-4.167,5.013v9.372c0,0,0.037,1.891,2.543,1.891h8.553
		c0,0,3.207-0.038,3.207-2.789V30.158C118.24,30.158,118.389,28.669,116.618,28.669 M112.894,32.039v9.546
		c0,0.904-0.956,1.586-0.956,1.586c-2.4,1.357-2.472-0.757-2.472-0.757v-9.356c0-2.224,1.882-2.185,1.882-2.185
		C113.154,30.873,112.894,32.039,112.894,32.039"/>
	<path fill="#331819" d="M129.829,42.469V24.625c0-0.832-0.422-0.943-0.422-0.943l-0.813-0.527c0,0-0.328-0.229-0.328-0.829
		c0-0.606,0.878-0.636,0.878-0.636h6.088c0.881,0,0.812,0.971,0.812,0.971v8v3.095v8.714c0,0.53,0.377,0.853,0.623,0.983
		c0.443,0.226,0.668,0.463,0.614,0.971c-0.068,0.576-0.798,0.527-0.798,0.527l-15.905-0.009c0,0-0.701,0.069-0.701-0.608
		c0-0.679,0.48-0.867,0.48-0.867c0.591-0.604,0.537-0.983,0.537-0.983V31.604c0-0.831-0.429-0.939-0.429-0.939l-0.81-0.529
		c0,0-0.33-0.228-0.33-0.832c0-0.602,0.887-0.634,0.887-0.634h6.082c0.882,0,0.808,0.974,0.808,0.974v0.73v3.394v8.647
		c0,0,0.187,0.982,1.361,0.982C129.644,43.396,129.829,42.469,129.829,42.469"/>
</g>
</svg>
