<?xml version="1.0" encoding="utf-8"?>
<!-- Generator: Adobe Illustrator 16.0.0, SVG Export Plug-In . SVG Version: 6.00 Build 0)  -->
<svg version="1.2" baseProfile="tiny" id="Layer_1" xmlns="http://www.w3.org/2000/svg" xmlns:xlink="http://www.w3.org/1999/xlink"
	 x="0px" y="0px" width="135.338px" height="31.48px" viewBox="0 0 135.338 31.48" xml:space="preserve">
<g>
	<path fill="#331819" d="M41.416,19.951h1.296c2.502,0,3.907-1.295,3.907-3.798c0-2.503-1.458-3.799-3.907-3.799h-1.296V19.951
		L41.416,19.951z M38.067,9.869h4.573c4.375,0,7.436,1.369,7.436,6.23c0,4.7-3.151,6.339-7.436,6.339h-4.573V9.869L38.067,9.869z"/>
	<path fill="#331819" d="M61.367,22.438h-2.953v-1.73h-0.036c-0.648,1.352-1.944,1.945-3.421,1.945
		c-2.557,0-3.583-1.801-3.583-3.744v-5.853h3.241v4.538c0,1.764,0.612,2.357,1.495,2.357c1.333,0,2.017-0.918,2.017-2.934v-3.962
		h3.241V22.438L61.367,22.438z"/>
	<polygon fill="#331819" points="63.293,8.933 66.534,8.933 66.534,17 66.57,17 69.271,13.056 72.818,13.056 69.559,17.359 
		73.088,22.438 69.163,22.438 66.57,17.791 66.534,17.791 66.534,22.438 63.293,22.438 63.293,8.933 	"/>
	<path fill="#331819" d="M79.786,16.855c0-1.081-0.504-1.963-1.801-1.963c-1.17,0-1.729,0.882-1.8,1.963H79.786L79.786,16.855z
		 M76.221,18.691c0.181,1.297,1.171,1.801,2.755,1.801c0.883,0,1.891-0.197,2.863-0.721v2.287c-1.045,0.414-2.232,0.594-3.439,0.594
		c-3.097,0-5.455-1.818-5.455-4.916c0-3.096,2.106-4.896,5.023-4.896c3.475,0,4.734,2.467,4.734,5.258v0.594H76.221L76.221,18.691z"
		/>
	<polygon fill="#331819" points="84.989,9.869 86.791,9.869 86.791,15.126 92.805,15.126 92.805,9.869 94.604,9.869 94.604,22.438 
		92.805,22.438 92.805,16.711 86.791,16.711 86.791,22.438 84.989,22.438 84.989,9.869 	"/>
	<path fill="#331819" d="M103.229,16.963c0-1.404-0.828-2.557-2.286-2.557c-1.657,0-2.341,1.368-2.467,2.557H103.229L103.229,16.963
		z M104.328,22.059c-0.648,0.234-1.387,0.594-2.899,0.594c-3.259,0-4.753-1.98-4.753-4.969c0-2.719,1.71-4.646,4.304-4.646
		c3.061,0,4.051,2.233,4.051,5.185h-6.554c0,1.82,1.422,3.062,3.024,3.062c1.116,0,2.413-0.578,2.827-0.92V22.059L104.328,22.059z"
		/>
	<path fill="#331819" d="M112.304,18.061c-0.359,0-0.72-0.035-1.08-0.035c-0.918,0-3.187,0.145-3.187,1.764
		c0,0.973,0.936,1.496,1.711,1.496c1.674,0,2.556-1.045,2.556-2.414V18.061L112.304,18.061z M107.281,13.902
		c0.846-0.504,1.854-0.864,3.024-0.864c2.629,0,3.691,1.296,3.691,3.8v3.799c0,1.043,0.036,1.529,0.072,1.801h-1.585v-1.189h-0.036
		c-0.396,0.559-1.296,1.404-2.844,1.404c-1.981,0-3.368-0.863-3.368-2.863c0-2.305,2.521-3.023,4.268-3.023
		c0.666,0,1.134,0,1.8,0.035c0-1.584-0.576-2.395-2.268-2.395c-0.955,0-1.981,0.36-2.665,0.936L107.281,13.902L107.281,13.902z"/>
	<polygon fill="#331819" points="116.324,8.933 118.016,8.933 118.016,22.438 116.324,22.438 116.324,8.933 	"/>
	<path fill="#331819" d="M125.542,14.622h-2.43v5.022c0,1.062,0.647,1.641,1.422,1.641c0.521,0,0.9-0.162,1.152-0.324V22.4
		c-0.379,0.109-0.9,0.252-1.44,0.252c-1.747,0-2.827-0.828-2.827-2.664v-5.366h-2.071v-1.368h2.071v-2.125l1.693-0.54v2.665h2.43
		V14.622L125.542,14.622z"/>
	<path fill="#331819" d="M127.217,8.933h1.693v5.636h0.036c0.611-0.973,1.674-1.531,2.953-1.531c2.376,0,3.438,1.477,3.438,3.943
		v5.457h-1.692v-4.754c0-2.143-0.469-3.188-1.944-3.277c-1.927,0-2.791,1.548-2.791,3.781v4.25h-1.693V8.933L127.217,8.933z"/>
	<path fill="#331819" d="M0,31.48V0h31.446v31.48H0L0,31.48z M21.304,22.201c-2.157,1.578-5.313,2.465-5.59,2.535l0,0
		c0.24-0.115,2.833-1.377,3.986-2.508c0.549-0.539,0.994-1.334,1.284-1.988c-0.138,0.119-0.243,0.338-1.598,1.07
		c-1.288,0.688-3.452,1.457-3.672,1.537v-0.004c0.189-0.105,1.727-0.961,2.665-2.02c0.557-0.625,1.009-1.189,1.238-1.75
		c-1.098,0.873-3.665,1.82-3.903,1.908v-0.004c0.147-0.09,1.103-0.686,1.886-1.594c0.574-0.67,0.632-1.098,0.72-1.445
		c-1.205,0.955-2.44,1.135-2.606,1.156v-0.01c0.154-0.104,1.193-0.836,1.245-2.303c-0.948,0.865-1.763,0.559-2.146,0.217
		c-0.38-0.332-0.37-1.046-0.37-1.046V5.931H13.17v0.933h-1.694V5.931h-1.27v0.933H8.512V5.931H7.236v11.485
		c0,0,0.021,3.275,3.017,5.746c2.096,1.729,5.46,3.367,5.46,3.367c0.277-0.139,3.451-1.705,4.833-2.934
		c0.993-0.885,1.458-1.459,1.791-2.215C22.046,21.654,21.694,21.918,21.304,22.201L21.304,22.201z M19.647,14.98V6.887h-1.164v9.636
		c0,0,0.036,0.68-0.164,1.416C19.846,16.951,19.647,14.98,19.647,14.98L19.647,14.98z M21.128,15.928V5.933h-1.162V17.35
		c0,0,0.037,0.785-0.344,1.719C21.123,17.85,21.128,15.928,21.128,15.928L21.128,15.928z M22.61,16.564V6.887h-1.161v11.117
		c0,0-0.096,1.527-0.459,2.229C22.629,19.182,22.61,16.564,22.61,16.564L22.61,16.564z M24.1,17.35V5.933h-1.167v13.065
		c0,0-0.063,1.184-0.589,2.377C24.17,19.611,24.1,17.35,24.1,17.35L24.1,17.35z M18.165,14.27V5.933h-1.164v9.842
		c0,0,0,0.731-0.04,1.002C18.309,15.635,18.165,14.27,18.165,14.27L18.165,14.27z"/>
</g>
</svg>
