<?xml version="1.0" encoding="utf-8"?>
<!-- Generator: Adobe Illustrator 16.0.0, SVG Export Plug-In . SVG Version: 6.00 Build 0)  -->
<svg version="1.2" baseProfile="tiny" id="Layer_1" xmlns="http://www.w3.org/2000/svg" xmlns:xlink="http://www.w3.org/1999/xlink"
	 x="0px" y="0px" width="54.303px" height="46.758px" viewBox="0 0 54.303 46.758" xml:space="preserve">
<path fill="#331618" d="M54.303,12.884c0-7.825-5.67-11.292-12.791-12.416C38.935,0.046,36.592,0,34.016,0
	C23.239,0,6.607,1.874,1.265,12.93C0.469,14.525,0,16.773,0,18.647c0,2.856,0.422,5.434,1.64,8.153
	c2.062,4.592,5.763,7.215,10.822,7.215c1.406,0,2.672-0.141,3.468-0.422c0.797-0.329,1.593-0.937,1.593-2.063
	c0-0.561-0.421-1.17-1.031-1.404c-0.656-0.234-1.218-0.28-2.951-0.374c-1.734-0.096-2.344-0.142-3.561-0.236
	c-1.921-0.186-2.905-1.453-2.905-2.669c0-1.079,0.75-2.016,2.155-2.672c-1.874-0.703-3.169-2.48-3.169-4.487
	c0-2.912,2.268-5.163,5.939-5.163c0.796,0,1.728,0.185,2.523,0.42c0.658,0.187,1.36,0.328,2.11,0.328c0.89,0,1.921-0.046,2.764-0.28
	v1.874c-0.469-0.094-1.968-0.189-2.764-0.189c0.75,0.846,1.171,2.015,1.171,3.14c0,2.624-2.061,4.825-5.716,4.825
	c-0.313,0-0.653-0.015-1.048-0.061c-0.382,0.076-0.727,0.241-0.994,0.461c-0.398,0.321-0.581,0.736-0.581,1.099
	c0,0.61,0.328,1.078,1.826,1.173l3.232,0.187c3.141,0.188,4.828,1.453,4.78,3.701c-0.093,2.576-2.155,4.452-7.121,4.452
	c-1.313,0-3.045-0.234-4.591-0.704c-1.125-0.327-2.203-0.936-3.139-1.639c4.215,7.215,11.712,13.446,20.38,13.446
	c4.217,0,7.825-1.498,11.198-3.98C44.088,36.779,54.303,23.331,54.303,12.884z M25.02,29.799c-1.641,0-3.092-0.328-4.592-0.939
	v-2.154c1.546,0.842,3.467,1.357,4.685,1.357c1.312,0,2.952-0.327,2.952-1.873c0-1.547-1.64-2.296-3.42-3.14
	c-1.968-0.936-4.076-1.966-4.076-4.357c0-2.904,2.81-4.168,5.34-4.168c1.36,0,2.718,0.327,3.889,0.983v2.108
	c-1.125-0.891-2.483-1.406-3.936-1.406c-1.405,0-2.763,0.563-2.763,1.827c0,1.499,1.78,2.344,3.653,3.281
	c1.969,0.984,4.03,2.108,4.03,4.261C30.782,28.72,27.644,29.799,25.02,29.799z M32.469,29.282c0.282-0.748,0.422-1.03,0.422-3.652
	V12.65c0-2.108-0.14-3.046-0.564-3.609l3.234-0.842v12.557l4.264-3.983c0,0,0.843-0.751,1.593-1.734h3.701
	c-0.186,0.047-0.842,0.188-3.186,2.389l-3.983,3.749c0,0,2.391,2.812,4.64,5.294c1.732,1.876,3.046,2.435,3.841,2.435
	c0.141,0,0.329-0.046,0.468-0.094c-0.702,0.518-1.732,0.798-2.857,0.798c-1.452,0-2.671-0.798-4.17-2.576
	c-2.389-2.859-4.311-5.154-4.311-5.154v3.75c0,2.622,0.141,3.043,0.375,3.652H32.469z"/>
<path fill="#331618" d="M15.227,19.853c0-2.107-1.208-3.784-3.456-3.784c-1.967,0-3.151,1.311-3.151,3.23
	c0,2.157,1.255,3.845,3.551,3.845C14.185,23.144,15.227,21.775,15.227,19.853z"/>
</svg>
