<?xml version="1.0" encoding="utf-8"?>
<!-- Generator: Adobe Illustrator 16.0.0, SVG Export Plug-In . SVG Version: 6.00 Build 0)  -->
<svg version="1.2" baseProfile="tiny" id="Layer_1" xmlns="http://www.w3.org/2000/svg" xmlns:xlink="http://www.w3.org/1999/xlink"
	 x="0px" y="0px" width="178.675px" height="155.87px" viewBox="0 0 178.675 155.87" xml:space="preserve">
<g>
	<g>
		<path fill="#331618" d="M74.025,78.08c-3.406,1.099-5.66,2.086-6.72,2.931c-1.049,0.869-1.584,2.108-1.584,3.725
			c0,1.06,0.36,1.986,1.08,2.758c0.751,0.792,1.595,1.173,2.583,1.173c1.646,0,3.189-0.767,4.579-2.32
			c0.906-1.024,1.348-2.43,1.348-4.245l-0.021-4.403L74.025,78.08z"/>
		<path fill="#331618" d="M127.453,75.374c0.885-0.337,1.315-1.116,1.315-2.372c0-1.927-0.483-3.515-1.45-4.738
			c-0.937-1.196-2.181-1.83-3.704-1.83c-1.831,0.01-3.386,0.873-4.661,2.573c-1.287,1.709-2.059,4.001-2.336,6.905l4.599-0.04
			C124.488,75.868,126.587,75.716,127.453,75.374z"/>
		<path fill="#331618" d="M178.182,103.721c0,0-8.942-12.889-12.513-22.87c-3.52-9.935-5.124-19.747-4.95-28.352
			c0.187-8.592-1.42-18.403-4.959-28.361c-3.54-9.953-12.503-22.844-12.503-22.844c-0.896-1.286-2.707-1.683-4.043-0.872
			c0,0-18.409,11.115-31.705,15.854c-13.244,4.726-26.137,7.417-37.26,8.124c-11.113,0.725-24.006,3.414-37.25,8.14
			C19.704,37.285,1.285,48.406,1.285,48.406c-1.328,0.795-1.687,2.482-0.792,3.771c0,0,8.953,12.865,12.523,22.841
			c3.519,9.962,5.113,19.78,4.939,28.372c-0.196,8.598,1.43,18.415,4.949,28.355c3.571,9.95,12.544,22.854,12.544,22.854
			c0.854,1.271,2.696,1.657,4.013,0.844c0,0,18.398-11.112,31.704-15.846c13.233-4.719,26.126-7.395,37.27-8.114
			c11.145-0.726,24.018-3.416,37.25-8.149c13.315-4.733,31.693-15.837,31.693-15.837
			C178.737,106.704,179.067,104.98,178.182,103.721z M60.195,90.56L47.508,90.58v-1.358h0.339c1.543,0,2.572-0.293,3.036-0.874
			c0.504-0.581,0.741-1.78,0.73-3.612l-0.01-11.293l-15.6,0.023l0.011,11.312c0,1.822,0.247,3.031,0.741,3.592
			c0.494,0.586,1.513,0.854,3.056,0.854h0.33v1.385L27.463,90.61v-1.368h0.339c1.554,0,2.573-0.277,3.056-0.849
			c0.463-0.571,0.689-1.78,0.689-3.617l-0.041-22.643c0-1.83-0.247-3.018-0.71-3.578c-0.494-0.574-1.502-0.854-3.046-0.854h-0.36
			v-1.397l12.688-0.019v1.41H39.76c-1.564,0-2.583,0.286-3.056,0.854c-0.504,0.566-0.71,1.754-0.71,3.579l0.01,9.616l15.6-0.01
			l-0.021-9.637c-0.01-1.821-0.247-3.025-0.741-3.573c-0.484-0.574-1.503-0.86-3.046-0.86h-0.34v-1.391h12.678v1.374h-0.339
			c-1.544,0-2.552,0.28-3.036,0.859c-0.453,0.566-0.7,1.771-0.7,3.592l0.021,22.628c0,1.856,0.247,3.071,0.751,3.622
			c0.474,0.565,1.461,0.854,3.005,0.854h0.36V90.56z M112.398,90.461l-12.338,0.017v-1.364h0.339
			c1.544-0.005,2.553-0.288,3.025-0.859c0.515-0.575,0.74-1.778,0.73-3.61l-0.021-9.916c0-2.179-0.351-3.763-1.07-4.733
			c-0.74-0.975-1.914-1.456-3.519-1.456c-1.174,0-2.409,0.262-3.715,0.761c-1.286,0.531-2.645,1.292-4.065,2.336l0.031,13.043
			c0.01,1.838,0.269,3.051,0.752,3.612c0.514,0.565,1.522,0.854,3.117,0.838h0.278v1.369l-12.358,0.036v-0.142
			c-1.172,0.536-2.345,0.825-3.499,0.825c-1.255,0-2.223-0.417-2.974-1.266c-0.72-0.844-1.234-2.1-1.471-3.766
			c-1.297,1.678-2.676,2.942-4.126,3.786c-1.441,0.828-2.984,1.265-4.62,1.265c-1.585,0-2.954-0.545-4.034-1.635
			c-1.06-1.101-1.615-2.485-1.615-4.142c0-1.842,0.843-3.416,2.552-4.707c1.729-1.282,4.527-2.515,8.469-3.623l3.025-0.898v-3.47
			c-0.021-1.505-0.113-2.567-0.278-3.169c-0.175-0.6-0.576-1.104-1.163-1.526c-0.896-0.653-2.006-0.981-3.303-0.981
			c-1.369,0-2.387,0.305-3.056,0.872c-0.69,0.581-1.029,1.451-1.029,2.624l0.031,1.085l-4.764,1.536v-0.654
			c0-1.771,1.029-3.45,3.077-5.054c1.996-1.562,4.507-2.329,7.532-2.329c2.48-0.013,4.281,0.486,5.382,1.51
			c1.111,1.032,1.656,2.685,1.656,4.99l0.041,10.501c0.01,2.649,0.237,4.414,0.721,5.315c0.453,0.885,1.389,1.312,2.799,1.312
			c0.432,0,0.926-0.037,1.461-0.129v0.479c1.283-0.062,2.139-0.341,2.593-0.829c0.473-0.586,0.7-1.789,0.7-3.621l-0.01-9.96
			c-0.01-2.039-0.165-3.33-0.463-3.934c-0.277-0.561-1.081-1.129-2.407-1.67l-1.266-0.55v-0.352l8.211-3.075l0.01,5.092
			c1.781-1.706,3.447-2.995,5.043-3.854c1.563-0.859,3.045-1.263,4.435-1.263c2.017,0,3.674,0.666,4.971,2.037
			c1.349,1.379,2.026,3.941,2.026,7.661l0.031,9.817c0,1.832,0.248,3.055,0.731,3.61c0.493,0.565,1.512,0.839,3.065,0.839h0.33
			V90.461z M133.832,88.356c-3.231,1.849-6.349,2.774-9.385,2.774c-3.642,0-6.647-1.209-9.024-3.647
			c-2.366-2.45-3.55-5.557-3.55-9.342c0-3.737,1.101-6.86,3.345-9.341c2.284-2.482,5.125-3.714,8.51-3.732
			c3.086,0,5.474,0.993,7.172,3.03c1.698,2.007,2.562,4.825,2.562,8.428v0.708l-16.928,0.041c0,0.494-0.009,0.831-0.009,1.032
			c0,2.868,0.895,5.255,2.727,7.195c1.801,1.929,4.075,2.892,6.751,2.892c2.552-0.017,5.176-0.715,7.83-2.125V88.356z
			 M150.718,89.129c-1.74,1.303-3.994,1.961-6.834,1.971c-2.974,0-5.483-0.551-7.531-1.626l-0.546-6.261h1.749l0.062,0.451
			c0.67,4.065,2.748,6.077,6.267,6.062c1.524,0,2.819-0.483,3.901-1.41c1.09-0.978,1.646-2.108,1.646-3.426
			c0-0.845-0.287-1.554-0.844-2.197c-0.566-0.616-1.914-1.508-4.074-2.673l-2.101-1.139c-4.012-2.19-6.019-4.637-6.028-7.33
			c0-2.013,0.72-3.593,2.211-4.757c1.451-1.165,3.459-1.764,5.979-1.764c2.129,0,4.476,0.453,7.028,1.386v5.123l-1.75,0.005
			l-0.082-0.419c-0.113-0.698-0.258-1.294-0.442-1.825c-0.154-0.499-0.401-0.957-0.741-1.342c-0.309-0.388-0.802-0.744-1.41-1.055
			c-0.606-0.36-1.502-0.511-2.664-0.511c-1.235,0.025-2.254,0.382-3.036,1.098c-0.792,0.708-1.193,1.616-1.183,2.75
			c0,1.633,1.563,3.311,4.672,5.042l2.336,1.281c2.264,1.233,3.817,2.385,4.691,3.444c0.863,1.086,1.286,2.383,1.296,3.941
			C153.29,86.104,152.437,87.822,150.718,89.129z"/>
	</g>
	<path fill="#331618" d="M152.961,5.671c0-1.731,1.285-3.056,2.974-3.056c1.667,0,2.973,1.325,2.973,3.056
		c0,1.781-1.306,3.062-2.973,3.062C154.247,8.733,152.961,7.452,152.961,5.671 M155.935,9.373c1.985,0,3.704-1.561,3.704-3.702
		c0-2.099-1.719-3.658-3.704-3.658c-2.037,0-3.735,1.559-3.735,3.658C152.2,7.812,153.898,9.373,155.935,9.373z M155.163,5.982
		h0.752l1.101,1.83h0.721l-1.194-1.891c0.598-0.067,1.092-0.396,1.092-1.145c0-0.836-0.515-1.204-1.504-1.204h-1.614v4.24h0.647
		V5.982z M155.163,5.427V4.092h0.875c0.442,0,0.916,0.111,0.916,0.641c0,0.65-0.484,0.694-1.019,0.694H155.163z"/>
</g>
</svg>
