<?xml version="1.0" encoding="utf-8"?>
<!-- Generator: Adobe Illustrator 16.0.0, SVG Export Plug-In . SVG Version: 6.00 Build 0)  -->
<svg version="1.2" baseProfile="tiny" id="Layer_1" xmlns="http://www.w3.org/2000/svg" xmlns:xlink="http://www.w3.org/1999/xlink"
	 x="0px" y="0px" width="185.086px" height="109.208px" viewBox="0 0 185.086 109.208" xml:space="preserve">
<g>
	<polygon fill="#331819" points="28.229,46.789 48.009,46.789 48.009,39.135 28.229,39.135 28.229,30.562 48.437,30.562 
		48.437,22.907 19.534,22.907 19.534,63.751 28.229,63.751 	"/>
	<path fill="#331819" d="M84.023,42.686c3.858-0.796,7.042-4.286,7.042-9.369c0-5.449-3.98-10.409-11.757-10.409H57.814v40.844
		h22.168c7.838,0,11.879-4.898,11.879-11.083C91.861,47.585,88.432,43.359,84.023,42.686z M66.51,30.562h10.9
		c2.939,0,4.776,1.775,4.776,4.286c0,2.633-1.837,4.287-4.776,4.287h-10.9V30.562z M77.777,56.097H66.51v-9.308h11.267
		c3.368,0,5.205,2.082,5.205,4.653C82.982,54.382,81.022,56.097,77.777,56.097z"/>
	<polygon fill="#331819" points="10.229,22.906 10.192,22.906 1.534,28.442 1.534,63.752 10.229,63.752 	"/>
	<path fill="#331819" d="M2.443,78.589c0-1.439,1.325-2.421,3.129-2.421c1.667,0,3.266,0.548,4.407,1.827l1.142-1.394
		c-1.279-1.347-3.083-2.146-5.389-2.146c-3.014,0-5.252,1.735-5.252,4.248c0,5.435,9.02,3.242,9.02,7.171
		c0,1.187-0.868,2.648-3.585,2.648c-2.147,0-3.791-1.051-4.773-2.192L0,87.792c1.256,1.416,3.22,2.421,5.846,2.421
		c4.111,0,5.618-2.284,5.618-4.477C11.464,80.05,2.443,82.014,2.443,78.589z"/>
	<path fill="#331819" d="M18.93,78.634c-3.357,0-5.458,2.581-5.458,5.778c0,3.196,2.101,5.8,5.458,5.8
		c3.357,0,5.458-2.604,5.458-5.8C24.388,81.215,22.287,78.634,18.93,78.634z M18.93,88.682c-2.352,0-3.654-2.009-3.654-4.27
		c0-2.238,1.302-4.248,3.654-4.248c2.352,0,3.654,2.01,3.654,4.248C22.584,86.673,21.282,88.682,18.93,88.682z"/>
	<path fill="#331819" d="M62.716,78.634c-3.357,0-5.458,2.581-5.458,5.778c0,3.196,2.101,5.8,5.458,5.8
		c3.357,0,5.458-2.604,5.458-5.8C68.174,81.215,66.074,78.634,62.716,78.634z M62.716,88.682c-2.352,0-3.654-2.009-3.654-4.27
		c0-2.238,1.302-4.248,3.654-4.248c2.352,0,3.654,2.01,3.654,4.248C66.371,86.673,65.068,88.682,62.716,88.682z"/>
	<path fill="#331819" d="M84.649,81.763c0-0.982,0.936-1.735,2.444-1.735c1.438,0,2.626,0.594,3.288,1.394l0.799-1.188
		c-0.867-0.891-2.192-1.599-4.087-1.599c-2.627,0-4.088,1.438-4.088,3.175c0,4.088,6.828,2.443,6.828,5.115
		c0,1.096-0.936,1.896-2.626,1.896c-1.507,0-2.9-0.73-3.631-1.575l-0.868,1.232c1.119,1.165,2.626,1.736,4.453,1.736
		c2.832,0,4.316-1.485,4.316-3.335C91.477,82.585,84.649,84.161,84.649,81.763z"/>
	<path fill="#331819" d="M76.623,78.634c-1.667,0-3.174,0.937-3.951,1.873v-1.599h-0.023l-1.689,1.08v9.95h1.712v-8.062
		c0.663-0.891,1.919-1.713,3.266-1.713c1.484,0,2.489,0.594,2.489,2.558v7.217h1.69v-7.741
		C80.117,79.799,78.907,78.634,76.623,78.634z"/>
	<polygon fill="#331819" points="52.646,89.938 54.36,89.938 54.36,78.934 52.646,80.028 	"/>
	<path fill="#331819" d="M53.515,75.026c-0.639,0-1.165,0.525-1.165,1.164c0,0.64,0.526,1.142,1.165,1.142
		c0.639,0,1.142-0.502,1.142-1.142C54.656,75.552,54.153,75.026,53.515,75.026z"/>
	<polygon fill="#331819" points="27.059,89.938 28.771,89.938 28.771,74.719 27.059,75.813 	"/>
	<path fill="#331819" d="M39.802,87.016c-0.639,0.891-1.918,1.667-3.243,1.667c-1.507,0-2.489-0.571-2.489-2.513v-7.22l-1.713,1.095
		v6.65c0,2.375,1.211,3.517,3.517,3.517c1.644,0,3.083-0.868,3.928-1.827v1.554h1.713v-11.03h-1.713V87.016z"/>
	<path fill="#331819" d="M47.737,88.682c-0.73,0-1.096-0.593-1.096-1.415v-6.851h2.238v-1.507h-2.238v-2.998l-1.735,1.109v10.611
		c0,1.644,0.822,2.58,2.466,2.58c0.982,0,1.598-0.296,2.032-0.707l-0.502-1.302C48.674,88.454,48.24,88.682,47.737,88.682z"/>
	<path fill="#331819" d="M184.18,54.072L131.424,0.056L95.734,0v0.043h-1.462l-0.043,0.035l-0.115-0.036l0.206,0.205l43.925,54.421
		l-43.978,54.351l54.394-54.394h-8.222l-34.56-42.818l42.818,42.818h34.186l0.678,0.694l0.711-0.694h0.813h0L184.18,54.072z
		 M97.75,1.317l33.119,0.051l48.762,49.928L97.75,1.317z"/>
	<polygon fill="#331819" points="94.077,109.208 94.113,109.208 94.267,109.019 	"/>
	<polygon fill="#331819" points="130.502,109.208 185.085,54.625 94.113,109.208 	"/>
</g>
</svg>
