<?xml version="1.0" encoding="utf-8"?>
<!-- Generator: Adobe Illustrator 16.0.0, SVG Export Plug-In . SVG Version: 6.00 Build 0)  -->
<svg version="1.2" baseProfile="tiny" id="Layer_1" xmlns="http://www.w3.org/2000/svg" xmlns:xlink="http://www.w3.org/1999/xlink"
	 x="0px" y="0px" width="288.017px" height="52.042px" viewBox="0 0 288.017 52.042" xml:space="preserve">
<path fill="#331819" d="M141.505,14.157c0.58,0,0.504,0,1.082,0.076v9.559c-1.082-0.358-1.943-0.504-2.877-0.504
	c-4.311,0-7.332,3.164-7.332,7.545v20.058h-9.916V14.95h9.267l0.434,5.25C133.958,16.675,137.413,14.157,141.505,14.157z M0,50.891
	h11.286V3.163H0V50.891z M40.899,14.162c-4.385,0-7.475,1.364-10.712,4.239l-0.576-3.451h-9.343v35.941h9.919v-22.57
	c0-4.025,2.3-6.612,6.47-6.612c2.662,0,3.666,1.937,3.666,4.384v24.799h9.922V24.076C50.245,18.045,47.149,14.162,40.899,14.162z
	 M69.58,38.96V22.121h7.903V14.95H69.58V6.251h-5.536c-1.293,4.819-3.736,8.775-8.768,10.209v5.805h4.381v20.863
	c0,6.977,6.326,8.77,10.926,8.77c3.096,0,6.256-0.861,8.195-1.793v-6.689c-0.646,0.359-2.878,1.15-4.67,1.15
	C70.295,44.565,69.58,42.264,69.58,38.96z M115.223,33.136c0,0.935,0,1.869-0.143,2.802H92.649c0,5.25,2.803,8.555,8.197,8.555
	c3.662,0,6.178-1.008,8.914-3.953l4.523,5.68c-4.312,4.385-9.2,5.822-15.236,5.822c-10.784,0-16.889-8.984-16.889-19.121
	c0-11.144,6.104-18.833,17.679-18.833C110.333,14.088,115.223,22.928,115.223,33.136z M105.014,29.831
	c0-3.811-0.936-8.63-5.607-8.63c-5.319,0-6.683,4.314-6.829,8.63H105.014z M150.427,10.204v4.746h-4.104v7.401h4.104v28.54h9.916
	V22.205h6.686V14.95h-6.686v-3.162c0-3.525,1.51-5.103,4.889-5.103c0.936,0,2.229,0.144,3.164,0.432V0.576
	C166.882,0.144,164.657,0,162.789,0C156.317,0,150.427,2.947,150.427,10.204z M199.588,23.861v27.03h-9.63l-0.285-3.38
	c-2.952,2.804-5.896,4.386-10.067,4.386c-6.321,0-10.352-4.457-10.352-10.637c0-11.646,11.792-12.146,20.419-13.371v-3.235
	c0-2.946-3.236-3.45-5.535-3.45c-3.599,0-6.905,1.294-9.129,3.881l-3.886-6.037c3.45-3.523,9.055-5.036,13.943-5.036
	C191.608,14.014,199.588,15.742,199.588,23.861z M189.673,33.709c-4.176,0.504-10.282,0.867-10.282,6.401
	c0,2.585,1.367,4.093,3.951,4.093c3.095,0,6.331-1.939,6.331-5.32V33.709z M223.67,44.35c-4.46,0-7.331-4.025-7.331-11.572
	c0-7.189,1.506-11.434,7.403-11.434c3.087,0,5.03,2.448,5.677,4.534l6.828-3.375c-2.012-5.757-7.186-8.415-13.726-8.415
	c-8.987,0-16.537,6.682-16.537,18.474c0,11.861,5.463,19.335,16.607,19.335c5.749,0,11.644-2.229,14.017-7.762l-6.258-4.025
	C229.276,42.84,226.974,44.35,223.67,44.35z M271.851,33.136c0,0.935,0,1.869-0.145,2.802H249.28c0,5.25,2.803,8.555,8.195,8.555
	c3.664,0,6.18-1.008,8.91-3.953l4.53,5.68c-4.315,4.385-9.2,5.822-15.235,5.822c-10.785,0-16.895-8.984-16.895-19.121
	c0-11.144,6.109-18.833,17.682-18.833C266.958,14.088,271.851,22.928,271.851,33.136z M261.64,29.831c0-3.811-0.934-8.63-5.604-8.63
	c-5.32,0-6.688,4.314-6.828,8.63H261.64z M284.142,21.645c0.166,1.088,0.335,1.504,0.446,1.725h-1.171
	c-0.17-0.221-0.334-0.862-0.477-1.781c-0.162-0.894-0.611-1.229-1.504-1.229h-0.779v3.009h-1.12v-6.994
	c0.588-0.087,1.147-0.165,1.981-0.165c1.064,0,1.758,0.221,2.178,0.527c0.418,0.307,0.639,0.78,0.639,1.449
	c0,0.92-0.611,1.477-1.365,1.702v0.056C283.585,20.05,284.001,20.614,284.142,21.645z M283.165,18.302
	c0-0.615-0.445-1.232-1.701-1.232c-0.359,0-0.613,0.031-0.807,0.056v2.37h0.807C282.386,19.495,283.165,19.165,283.165,18.302z
	 M288.017,19.72c0,3.539-2.732,6.3-6.188,6.3c-3.429,0-6.219-2.761-6.219-6.3c0-3.486,2.79-6.271,6.219-6.271h0.025
	C285.284,13.449,288.017,16.234,288.017,19.72z M286.876,19.751c0-2.959-2.234-5.325-5.021-5.325h-0.025
	c-2.764,0-5.02,2.365-5.02,5.293c0,2.981,2.256,5.327,5.045,5.327C284.642,25.071,286.876,22.701,286.876,19.751z"/>
</svg>
