<?xml version="1.0" encoding="utf-8"?>
<!-- Generator: Adobe Illustrator 16.0.0, SVG Export Plug-In . SVG Version: 6.00 Build 0)  -->
<svg version="1.2" baseProfile="tiny" id="Layer_1" xmlns="http://www.w3.org/2000/svg" xmlns:xlink="http://www.w3.org/1999/xlink"
	 x="0px" y="0px" width="842.674px" height="518.121px" viewBox="0 0 842.674 518.121" xml:space="preserve">
<g>
	<g>
		<path fill="#331819" d="M632.052,300.328l-10.245,1.657c-5.507,0.719-10.615,5.343-11.37,10.31l-6.859,45.397
			c-0.354,2.341,0.301,4.44,1.835,5.925c1.466,1.424,3.629,2.121,6.077,1.986c0.356-0.021,0.726-0.049,1.123-0.115l10.203-1.549
			c5.464-0.831,10.53-5.543,11.27-10.486l6.801-45.213c0.343-2.312-0.312-4.341-1.793-5.833
			C637.43,300.762,634.926,299.944,632.052,300.328z M629.989,310.394l-6.603,43.733c-0.114,0.797-1.125,1.722-1.992,1.858
			l-5.691,0.801c-0.314,0.01-0.599-0.084-0.813-0.27c-0.198-0.198-0.283-0.476-0.241-0.768l6.701-43.718
			c0.114-0.782,1.138-1.884,1.994-2.007l5.491-0.859l0.143-0.006c0.298-0.016,0.597,0.078,0.797,0.276
			C629.96,309.641,630.044,310.083,629.989,310.394z"/>
		<path fill="#331819" d="M680.942,292.375l-9.875,1.558c-5.309,0.675-10.232,5.208-10.956,10.088l-7.03,46.685
			c-0.341,2.305,0.271,4.369,1.751,5.827c1.423,1.386,3.499,2.099,5.862,1.977c0.341-0.027,0.697-0.063,1.067-0.127l9.959-1.438
			c5.293-0.819,10.158-5.421,10.871-10.28l6.844-46.493c0.34-2.276-0.27-4.333-1.723-5.799
			C686.135,292.744,683.715,292.018,680.942,292.375z M678.993,301.985l-6.717,45.199c-0.113,0.774-1.082,1.678-1.906,1.806
			l-5.692,0.833c-0.299,0.013-0.568-0.079-0.755-0.279c-0.198-0.186-0.283-0.462-0.241-0.754l6.731-45.198
			c0.129-0.776,1.096-1.664,1.92-1.772l5.678-0.881c0.299-0.014,0.555,0.091,0.74,0.27
			C678.95,301.417,679.036,301.686,678.993,301.985z"/>
		<path fill="#331819" d="M786.819,278.345c-1.494-1.58-3.758-2.436-6.303-2.115l-9.064,1.443
			c-4.881,0.635-9.447,4.946-10.133,9.642l-2.219,15.673c-0.91,6.247,3.332,8.507,7.045,10.514l6.529,3.493
			c2.023,1.097,0.926,5.095,0.641,7.1l-1.381,9.136c-0.113,0.739-1.008,1.623-1.791,1.729l-5.064,0.726
			c-0.285,0.007-0.529-0.078-0.713-0.27c-0.17-0.186-0.258-0.457-0.215-0.742l1.51-10.129l-9.891,1.528l-1.549,10.409
			c-0.314,2.212,0.256,4.198,1.621,5.611c1.322,1.347,3.246,2.037,5.436,1.924c0.314-0.016,0.641-0.035,0.982-0.094l9.148-1.358
			c4.895-0.76,9.404-5.164,10.074-9.817l2.035-15.048c0.824-5.87-2.918-8.623-6.93-10.615l-6.402-3.271
			c-0.727-0.322-1.365-1.409-1.154-3.046l1.994-13.838c0.127-0.73,1.01-1.6,1.791-1.699l4.951-0.805
			c0.285,0,0.529,0.087,0.713,0.278c0.17,0.191,0.27,0.449,0.229,0.74l-1.639,11.021l9.721-1.508l1.592-11.185
			C788.698,281.618,788.143,279.766,786.819,278.345z"/>
		<path fill="#331819" d="M740.715,285.944c-1.549-1.595-3.811-2.542-6.473-2.192l-24.674,3.97l-1.15,8.175l5.918-0.94
			l-7.301,49.046l-5.889,0.881l-1.139,7.984l5.918-0.854v0.013l19.066-2.717c5.096-0.792,9.75-5.28,10.447-10.024l6.955-47.887
			C742.709,289.187,742.098,287.386,740.715,285.944z M725.547,339.705c-0.113,0.755-1.051,1.644-1.861,1.773l-6.375,0.989
			l7.17-49.162l6.846-1.09l0.113-0.02c0.285-0.006,0.555,0.101,0.74,0.277c0.186,0.193,0.256,0.47,0.213,0.754L725.547,339.705z"/>
		<polygon fill="#331819" points="592.665,321.948 595.028,306.518 555.443,312.943 554.162,321.18 562.77,319.786 555.684,365.381 
			547.189,366.671 546.022,374.886 573.968,370.839 575.193,362.436 566.869,363.733 569.843,344.324 581.723,342.481 
			583.09,333.716 571.179,335.594 573.913,317.992 574.04,317.979 584.897,316.221 583.801,323.35 		"/>
	</g>
	<path fill="#331819" d="M656.168,160.095c-0.084,0.655-0.198,1.531-0.282,2.575C655.928,161.852,656.041,160.976,656.168,160.095z"
		/>
	<path fill="#331819" d="M816.913,115.048c-11.426-18.833-18.811-35.652-9.391-58.14c0,0-19.551,0.426-34.264,18.953
		c-9.775,12.335-9.334,27.006-3.727,40.566c5.705,13.816,17.842,21.728,25.611,33.958c8.807,13.823,5.605,35.421-8.949,44.95
		c-12.066,7.91-35.174,5.241-40.34-8.582c3.4-3.836,13.957-15.694,14-15.73c16.234-18.05,3.545-34.298-14.996-24.952
		c-6.26,3.152-11.111,9.278-13.945,15.566c-1.508,3.359-2.832,7.265-3.299,10.92c-0.6,5.948-0.869,10.394-0.684,14.471
		c-6.49,7.08-14.002,14.564-18.967,18.116c-26.609,19.051-44.012,4.907-49.078-6.752c-1.165-2.256-2.021-5.335-2.419-8.451
		c6.645-3.132,12.848-6.512,18.426-9.84c8.141-4.803,17.957-11.169,26.795-18.499c0.654-0.547,1.01-0.839,1.01-0.839h-0.014
		c6.26-5.322,11.951-11.104,16.092-17.16c17.16-25.143,2.775-48.286-15.666-49.353c-27.49-1.593-51.096,14.194-67.302,35.794
		c-11.967,15.95-20.276,34.734-23.393,54.318c-0.243,1.609-0.47,3.244-0.655,4.896c-7.881,0.541-14.912-0.122-20.702-1.181
		c2.845-9.314,5.05-17.993,6.843-25.086c4.125-16.221,7.229-51.31-11.909-50.592c-19.138,0.713-30.65,19.387-33.88,43.833
		c-3.444,26.075,15.041,38.389,15.041,38.389c0.483,0.334-16.819,48.799-40.454,45.789c-12.321-1.566-7.255-23.15-5.364-36.599
		c4.255-30.021,21.855-81.395,21.855-81.395l-25.653,4.19l-19.877,3.323c0,0-0.911,1.493-2.461,5.101
		c-2.932,6.786-7.984,20.134-12.892,41.072c-0.664,2.825-1.31,5.792-1.971,8.885c-0.448,1.964-0.833,3.978-1.239,5.969
		c-0.831,4.184-1.615,8.418-2.248,12.644c-0.376,2.504-0.704,4.985-1.012,7.456c-1.194,9.93-1.806,19.342-1.777,26.762
		c0,0.62,0.049,1.197,0.071,1.801c-6.467,8.045-14.406,14.1-23.23,12.969c-6.801-0.86-8.293-7.826-7.959-16.142
		c0.334-6.652,1.765-14.108,2.589-19.942c4.241-30.021,21.742-81.518,21.742-81.518l-45.717,7.513c0,0-0.605,1.103-2.17,4.717
		c-0.377,0.891-0.797,1.894-1.245,2.989c-17.672,34.036-38.752,38.169-38.752,38.169v0.214c-0.114-0.84-0.235-1.68-0.37-2.513
		c-0.512-2.929-1.217-5.761-2.156-8.495c-4.155-11.908-13.595-19.598-24.865-22.731c-0.298-0.084-0.583-0.178-0.889-0.247
		c-3.82-0.982-7.84-1.445-11.931-1.352c-1.33,0.02-2.646,0.097-3.949,0.214c-23.279,2.063-43.221,16.527-57.442,35.479
		c-3.194,4.24-6.189,8.807-8.928,13.561c-8.025,13.888-13.874,29.617-15.666,45.326c-0.527,4.674-0.705,9.356-0.47,13.98
		c0,0.021,0,0.056,0,0.084c0.008,0.199,0.029,0.413,0.036,0.62c0.477,7.833,1.693,16.306,5.322,23.384
		c0.328,0.635,0.633,1.287,1.004,1.9c0.006,0.028,0.028,0.042,0.036,0.063c0.426,0.691,0.91,1.395,1.521,2.213
		c0.199,0.262,0.371,0.554,0.569,0.81c0.798,1.012,1.636,1.936,2.505,2.832c0.021,0.021,0.036,0.035,0.063,0.058
		c0.398,0.435,0.833,0.832,1.245,1.245c7.89,7.414,18.334,10.978,29.261,11.54c13.767,0.726,28.288-3.295,39.421-10.394
		c6.431-4.106,13.013-9.727,17.835-15.667c0.256-0.328,0.499-0.662,0.755-0.974c9.347-11.733,17.067-25.165,21.215-39.537
		c0.292-1.009,0.612-2.011,0.875-3.037c0.3-1.208,0.598-2.447,0.896-3.699c2.071-8.744,3.906-18.434,4.525-28.031
		c14.848-4.98,24.125-13.205,26.359-15.36c-0.605,2.639-1.031,4.447-1.636,7.305c-1.38,6.048-2.547,12.346-3.479,18.619
		c-0.376,2.491-0.704,4.981-1.01,7.443c-1.202,9.94-1.8,19.352-1.779,26.757c0,0.015,0,0.015,0,0.015
		c0.136,30.287,22.632,35.856,42.58,33.615c4.61-0.52,9.085-1.451,13.113-2.597c11.417-3.238,20.922-9.748,28.913-18.134
		c11.588,11.509,32.191,10.122,46.892,5.954c29.396-8.345,46.214-38.177,56.544-66.499c6.518,1.295,14.756,1.942,24.758,0.959
		c0.158,7.549,1.281,15.054,3.885,21.679c1.294,3.323,2.007,4.688,4.226,7.477c26.309,33.16,72.227,7.506,95.618-15.161
		c4.469-4.332,9.891-9.652,15.184-14.904l1.877-1.829c19.096,37.906,98.494,38.376,109.877-21.123
		C847.165,150.932,827.868,133.082,816.913,115.048z M333.807,261.603c-9.484,4.911-21.237,4.875-29.475-1.942
		c-1.936-1.607-3.486-3.592-4.781-5.804c-0.185-0.306-0.384-0.606-0.548-0.925c-6.815-12.729-4.524-32.982-0.256-44.615
		c0.84-2.307,1.772-4.418,2.74-6.445c0.469-0.998,0.939-2.015,1.429-2.96c6.553-12.458,15.125-19.893,22.525-23.893
		c0.036-0.013,0.078-0.048,0.128-0.078c6.744-3.626,12.5-4.395,14.734-3.522c-3.201,3.693-12.734,16.649-2.44,30.019
		c3.728,4.793,9.562,7.547,16.719,8.188c0.641,0.062,1.281,0.126,1.949,0.156c0.015,0.156,0,0.312,0,0.477
		C357.483,240.196,341.042,257.839,333.807,261.603z M655.999,159.398c0.085-0.833,0.198-1.7,0.327-2.582
		c1.551-10.579,6.701-24.417,9.477-28.886c3.512-5.605,11.04-14.954,17.829-11.809c0.826,0.389,1.65,0.931,2.461,1.706
		c2.574,2.555,3.629,5.87,3.586,9.535c0.127,2.348-0.113,5.101-0.969,8.402c-1.094,4.317-3.898,9.432-8.465,15.168
		c-4.469,5.32-13.176,14.705-25.115,22.829C655.188,168.027,655.629,162.783,655.999,159.398z"/>
	<path fill="#331819" d="M380.399,345.426c-15.865,2.741-38.638,6.524-62.799,10.487c-17.701,2.725-68.597,12.13-122.81,22.245
		l38.134-239.456c0,0,56.382-3.402,82.35-36.427c18.156-23.107,20.874-51.701,7.264-74.495
		c-22.162-37.152-117.73-58.583-136.37,80.621c0,0-31.097-2.192-57.933-30.345c1.835,11.448,5.513,42.566,51.309,55.963l3.117,0.684
		l-42.139,253.608c-51.665,9.681-97.041,18.184-108.666,20.026c0,0-18.205,1.401-25.392,15.401
		c-20.127,39.031,7.485,94.381,72.596,94.381c68.178,0,98.415-63.346,108.716-93.005c110.765-14.464,239.786-31.374,245.121-32.292
		c5.891-1.031,11.399-2.241,16.498-3.772c27.229-8.202,42.802-23.839,42.916-68.861C492.31,320.191,485.152,327.319,380.399,345.426
		z M273.732,32.533c1.644,0,3.337,0.207,5.059,0.597c9.263,2.192,14.556,11.228,13.831,23.619
		c-1.309,22.076-19.899,49.646-52.206,53.288l-3.757,0.129C236.658,110.166,245.118,32.533,273.732,32.533z M67.939,485.51
		c-24.936,0-39.755-13.81-40.012-30.527c-0.021-1.116-0.42-5.023,1.239-9.18c0,0,43.283-5.633,101.508-13.231
		C123.433,454.576,106.059,485.51,67.939,485.51z"/>
</g>
</svg>
