<?xml version="1.0" encoding="utf-8"?>
<!-- Generator: Adobe Illustrator 16.0.0, SVG Export Plug-In . SVG Version: 6.00 Build 0)  -->
<svg version="1.2" baseProfile="tiny" id="Layer_1" xmlns="http://www.w3.org/2000/svg" xmlns:xlink="http://www.w3.org/1999/xlink"
	 x="0px" y="0px" width="149.104px" height="67.701px" viewBox="0 0 149.104 67.701" xml:space="preserve">
<line fill="#FFFFFF" x1="-352.917" y1="-480.719" x2="-352.917" y2="-480.719"/>
<g>
	<path fill="#331618" d="M136.977,23.368v-6.782h-23.705L74.562,0L35.85,16.586H12.143v6.782H0v44.333h149.104V23.368H136.977z
		 M147.734,66.33H1.371V24.739h12.143v-6.782h22.617L74.562,1.492l38.429,16.465h22.615v6.782h12.129V66.33z"/>
	<path fill="#331618" d="M126.286,56.773c-0.505,0-0.723,0.325-0.768,0.726h1.512C126.992,57.148,126.81,56.773,126.286,56.773z"/>
	<path fill="#331618" d="M98.683,59.168c0.517,0,0.828-0.32,0.828-0.893v-0.298c-0.557,0.319-1.377,0.145-1.377,0.784
		C98.134,58.987,98.334,59.168,98.683,59.168z"/>
	<path fill="#331618" d="M131.199,30.054c0-0.27-0.247-0.322-0.478-0.322h-0.451v0.681h0.394
		C130.946,30.413,131.199,30.389,131.199,30.054z"/>
	<path fill="#331618" d="M46.317,34.075c0,0-0.004,8.653,0,12.59c1.779-0.004,3.729-0.004,5.488-0.029l-0.029-12.558L46.317,34.075z
		"/>
	<path fill="#331618" d="M61.033,56.803c-0.636,0-0.892,0.573-0.892,1.154c0,0.565,0.256,1.153,0.892,1.153
		c0.638,0,0.894-0.588,0.894-1.153C61.927,57.376,61.671,56.803,61.033,56.803z"/>
	<path fill="#331618" d="M53.873,59.11c0.507,0,0.826-0.522,0.826-1.133c0-0.639-0.273-1.147-0.826-1.147
		c-0.552,0-0.828,0.386-0.828,1.147C53.045,58.694,53.353,59.11,53.873,59.11z"/>
	<path fill="#331618" d="M38.478,56.773c-0.508,0-0.724,0.325-0.768,0.726h1.508C39.185,57.148,39.001,56.773,38.478,56.773z"/>
	<path fill="#331618" d="M105.653,56.773c-0.506,0-0.723,0.325-0.768,0.726h1.512C106.362,57.148,106.179,56.773,105.653,56.773z"/>
	<path fill="#331618" d="M79.267,56.773c-0.508,0-0.727,0.325-0.771,0.726h1.51C79.968,57.148,79.787,56.773,79.267,56.773z"/>
	<path fill="#331618" d="M27.263,57.957c0,0.565,0.254,1.153,0.894,1.153c0.637,0,0.892-0.588,0.892-1.153
		c0-0.581-0.255-1.154-0.892-1.154C27.517,56.803,27.263,57.376,27.263,57.957z"/>
	<path fill="#331618" d="M68.942,56.773c-0.51,0-0.727,0.325-0.77,0.726h1.508C69.642,57.148,69.463,56.773,68.942,56.773z"/>
	<path fill="#331618" d="M129.119,30.542c0,0.917,0.682,1.589,1.551,1.589c0.858,0,1.544-0.672,1.544-1.589
		c0-0.9-0.686-1.582-1.544-1.582C129.801,28.96,129.119,29.642,129.119,30.542z M131.545,30.075c0,0.393-0.244,0.562-0.565,0.604
		l0.623,0.967h-0.373l-0.58-0.952h-0.379v0.952h-0.336v-2.198h0.836C131.289,29.448,131.545,29.642,131.545,30.075z"/>
	<path fill="#331618" d="M113.192,57.957c0,0.565,0.256,1.153,0.894,1.153c0.642,0,0.892-0.588,0.892-1.153
		c0-0.581-0.25-1.154-0.892-1.154C113.448,56.803,113.192,57.376,113.192,57.957z"/>
	<path fill="#331618" d="M134.857,18.705l-22.092-0.03L74.562,2.305l-38.276,16.4H14.262v6.782H2.119v40.095h144.867V25.487h-12.129
		V18.705z M132.597,30.542c0,1.104-0.889,1.908-1.927,1.908c-1.048,0-1.933-0.804-1.933-1.908c0-1.094,0.885-1.9,1.933-1.9
		C131.708,28.642,132.597,29.448,132.597,30.542z M126.36,59.139c0.44,0,0.582-0.24,0.681-0.42h1.017
		c-0.173,0.521-0.631,1.249-1.74,1.249c-1.139,0-1.842-0.719-1.842-1.976c0-1.348,0.746-2.045,1.842-2.045
		c1.238,0,1.754,0.914,1.754,2.277h-2.581C125.519,58.732,125.701,59.139,126.36,59.139z M125.581,51.623
		c-3.818,3.106-13.793-0.231-13.793-0.231l0.008-5.33c0,0,6.652,2.47,8.27,2.183c0.901-0.08,1.738-0.629,2.074-1.405
		c0.107-0.735,0.107-1.386-0.377-1.952c-3.189-2.352-7.447-2.666-9.674-6.526c-1.045-2.077-1.006-5.014,0.335-6.922
		c1.913-2.77,4.912-3.61,8.226-3.337c3.465,0.497,6.873,2.664,6.873,2.664l-0.019,4.782c-1.052-0.363-2.343-1.045-3.411-1.362
		c-1.826-0.755-4.806-1.598-6.148-0.23c-0.439,0.377-0.523,0.901-0.545,1.445c0.293,1.596,2.16,1.849,3.291,2.625
		c2.939,1.195,6.86,3.209,7.264,6.819C128.583,47.509,127.551,49.945,125.581,51.623z M120.635,57.224
		c0-0.718,0.497-1.277,1.634-1.277c1.412,0,1.597,0.863,1.617,1.263h-0.984c-0.023-0.117-0.057-0.233-0.161-0.32
		c-0.097-0.087-0.259-0.143-0.536-0.143c-0.318,0-0.579,0.108-0.579,0.304c0,0.739,2.362,0.15,2.362,1.602
		c0,0.841-0.668,1.315-1.633,1.315c-1.39,0-1.842-0.678-1.86-1.35h1.041c0.022,0.201,0.082,0.55,0.843,0.55
		c0.333,0,0.623-0.116,0.623-0.357C123.001,58.071,120.635,58.631,120.635,57.224z M119.094,59.281
		c-0.278,0.552-0.812,0.687-1.163,0.687c-0.855,0-1.32-0.538-1.32-1.343v-2.562h1.015v2.314c0,0.6,0.326,0.733,0.677,0.733
		c0.368,0,0.762-0.245,0.762-1.089v-1.958h1.015v3.788h-0.972v-0.57H119.094z M116.022,57.957c0,1.26-0.772,2.011-1.937,2.011
		c-1.159,0-1.937-0.751-1.937-2.011c0-1.264,0.777-2.01,1.937-2.01C115.25,55.947,116.022,56.693,116.022,57.957z M109.872,56.803
		c-0.37,0-0.762,0.248-0.762,1.089v1.959h-1.014v-5.224h1.014v1.975h0.014c0.236-0.51,0.768-0.655,1.119-0.655
		c0.855,0,1.318,0.538,1.318,1.34v2.564h-1.014v-2.316C110.548,56.934,110.219,56.803,109.872,56.803z M112.62,30.512l-5.45-0.01
		l0.007-6.713l5.443,0.003V30.512z M105.729,59.139c0.441,0,0.58-0.24,0.682-0.42h1.015c-0.175,0.521-0.631,1.249-1.741,1.249
		c-1.136,0-1.842-0.719-1.842-1.976c0-1.348,0.746-2.045,1.842-2.045c1.241,0,1.758,0.914,1.758,2.277h-2.582
		C104.886,58.732,105.067,59.139,105.729,59.139z M102.399,56.688c0.11-0.189,0.44-0.74,1-0.74c0.064,0,0.152,0.006,0.218,0.014
		v1.032c-0.072-0.007-0.162-0.016-0.237-0.016c-0.805,0-0.951,0.494-0.951,0.973v1.901h-1.018v-3.788h0.972v0.624H102.399z
		 M90.81,52.116l-0.004-23.292l14.897-0.003v5.25l-8.608,0.002l0.004,3.78h8.604l0.024,5.222l-8.625,0.017
		c0,1.106-0.004,3.567-0.004,3.567l8.604,0.006v5.451H90.81z M99.134,57.455c0.276-0.066,0.377-0.102,0.377-0.319
		c0-0.268-0.225-0.389-0.589-0.389c-0.569,0-0.666,0.263-0.704,0.521h-0.941c0.011-0.553,0.24-1.321,1.625-1.321
		c1.127,0,1.598,0.434,1.598,1.229v1.89c0,0.377,0.086,0.53,0.216,0.595v0.19h-1.042c-0.074-0.124-0.14-0.37-0.146-0.481
		c-0.197,0.233-0.523,0.598-1.174,0.598c-0.773,0-1.205-0.415-1.205-1.184C97.147,57.515,98.426,57.638,99.134,57.455z
		 M95.744,59.851h-0.985l-0.833-3.904h-0.017l-0.805,3.904h-0.98l-1.471-5.224h1.16l0.789,3.698h0.018l0.746-3.698h1.146
		l0.746,3.698h0.016l0.85-3.698h1.117L95.744,59.851z M87.774,59.168v0.769c-0.129,0.012-0.325,0.031-0.426,0.031
		c-0.994,0-1.199-0.302-1.199-1.128v-2.049h-0.493v-0.728h0.493v-1.015h1.017v1.015h0.608v0.728h-0.608v2.014
		C87.166,59.147,87.218,59.168,87.774,59.168z M77.399,46.636l3.336,0.025l-0.008-17.837h6.506l0.002,19.742
		c0.024,1.343-0.637,2.665-1.918,3.254l-1.26,0.296l-7.847,0.008c-0.756-0.211-1.595-1.104-2.036-1.814
		c-0.63,1.046-0.9,1.788-2.117,1.809c-1.334,0-4.959,0-7.42,0c-0.547-0.165-0.847-0.212-1.213-0.373
		c-0.685-0.311-1.783-0.835-1.783-3.193l-0.006-19.727l6.322-0.025l-0.02,17.864h3.568l-0.013-17.844
		c2.045,0.005,3.948,0.005,5.884,0L77.399,46.636z M83.351,56.803c-0.371,0-0.761,0.248-0.761,1.089v1.959h-1.017v-3.788h0.972
		v0.564h0.015c0.276-0.552,0.812-0.68,1.162-0.68c0.855,0,1.32,0.538,1.32,1.34v2.564h-1.018v-2.316
		C84.024,56.934,83.698,56.803,83.351,56.803z M79.339,59.139c0.442,0,0.577-0.24,0.68-0.42h1.017
		c-0.177,0.521-0.632,1.249-1.741,1.249c-1.139,0-1.844-0.719-1.844-1.976c0-1.348,0.748-2.045,1.844-2.045
		c1.242,0,1.756,0.914,1.756,2.277h-2.583C78.496,58.732,78.679,59.139,79.339,59.139z M75.274,56.803
		c-0.299,0-0.653,0.2-0.653,1.001v2.047h-1.015v-2.316c0-0.601-0.273-0.732-0.565-0.732c-0.297,0-0.653,0.2-0.653,1.001v2.047
		h-1.016v-3.788h0.97v0.564h0.019c0.244-0.552,0.757-0.68,1.063-0.68c0.515,0,0.888,0.253,1.068,0.68
		c0.258-0.552,0.833-0.68,1.138-0.68c0.791,0,1.225,0.538,1.225,1.34v2.564H75.84v-2.316C75.84,56.934,75.558,56.803,75.274,56.803z
		 M69.013,59.139c0.443,0,0.58-0.24,0.682-0.42h1.018c-0.176,0.521-0.632,1.249-1.74,1.249c-1.14,0-1.848-0.719-1.848-1.976
		c0-1.348,0.752-2.045,1.848-2.045c1.239,0,1.754,0.914,1.754,2.277H68.14C68.173,58.732,68.354,59.139,69.013,59.139z
		 M66.896,56.063l-1.393,3.788h-1.074l-1.363-3.788h1.115l0.793,2.842h0.012l0.791-2.842H66.896z M62.969,57.957
		c0,1.26-0.774,2.011-1.936,2.011s-1.937-0.751-1.937-2.011c0-1.264,0.775-2.01,1.937-2.01S62.969,56.693,62.969,57.957z
		 M53.019,56.511c0.146-0.203,0.398-0.564,1.123-0.564c0.936,0,1.604,0.746,1.604,1.958c0,1.175-0.582,2.063-1.634,2.063
		c-0.6,0-0.885-0.302-1.051-0.57h-0.017v1.961H52.03v-5.296h0.973v0.448H53.019z M54.224,52.092l-10.975,0.027
		c-1.09-0.064-2.121-0.362-2.729-1.33c-0.461-0.524-0.461-1.215-0.488-1.835V31.287c0.154-0.972,0.805-1.899,1.744-2.236
		l0.843-0.227l12.379-0.023c1.239,0.085,2.372,1.132,2.769,2.287l0.293,1.31l0.016,16.891c-0.297,1.082-1.018,2.216-2.155,2.57
		L54.224,52.092z M49.522,56.803c-0.299,0-0.656,0.2-0.656,1.001v2.047h-1.016v-2.316c0-0.601-0.276-0.732-0.563-0.732
		c-0.3,0-0.653,0.2-0.653,1.001v2.047h-1.018v-3.788h0.973v0.564h0.014c0.248-0.552,0.764-0.68,1.068-0.68
		c0.514,0,0.883,0.253,1.066,0.68c0.259-0.552,0.834-0.68,1.137-0.68c0.792,0,1.227,0.538,1.227,1.34v2.564h-1.015v-2.316
		C50.086,56.934,49.804,56.803,49.522,56.803z M44.58,54.627v5.224h-1.074v-5.224H44.58z M38.554,59.139
		c0.44,0,0.579-0.24,0.682-0.42h1.014c-0.174,0.521-0.63,1.249-1.741,1.249c-1.139,0-1.842-0.719-1.842-1.976
		c0-1.348,0.747-2.045,1.842-2.045c1.24,0,1.755,0.914,1.755,2.277h-2.58C37.71,58.732,37.89,59.139,38.554,59.139z M56.521,56.063
		h0.973v0.624h0.014c0.109-0.189,0.442-0.74,0.999-0.74c0.069,0,0.156,0.006,0.224,0.014v1.032
		c-0.074-0.007-0.162-0.016-0.242-0.016c-0.807,0-0.951,0.494-0.951,0.973v1.901h-1.016V56.063z M37.507,52.116H21.559l0.009-28.327
		l6.292,0.003c0.002,0.315,0.002,22.555,0.002,22.875l9.645-0.002V52.116z M34.487,56.803c-0.299,0-0.652,0.2-0.652,1.001v2.047
		h-1.016v-2.316c0-0.601-0.273-0.732-0.566-0.732c-0.298,0-0.653,0.2-0.653,1.001v2.047h-1.016v-3.788h0.974v0.564h0.015
		c0.247-0.552,0.76-0.68,1.066-0.68c0.512,0,0.885,0.253,1.065,0.68c0.261-0.552,0.834-0.68,1.14-0.68
		c0.79,0,1.225,0.538,1.225,1.34v2.564h-1.016v-2.316C35.054,56.934,34.771,56.803,34.487,56.803z M30.092,57.957
		c0,1.26-0.776,2.011-1.935,2.011c-1.161,0-1.939-0.751-1.939-2.011c0-1.264,0.778-2.01,1.939-2.01
		C29.316,55.947,30.092,56.693,30.092,57.957z M21.386,54.627h1.074v1.975h2.018v-1.975h1.071v5.224h-1.071v-2.308H22.46v2.308
		h-1.074V54.627z"/>
</g>
</svg>
