<?xml version="1.0" encoding="utf-8"?>
<!-- Generator: Adobe Illustrator 16.0.0, SVG Export Plug-In . SVG Version: 6.00 Build 0)  -->
<svg version="1.2" baseProfile="tiny" id="Layer_1" xmlns="http://www.w3.org/2000/svg" xmlns:xlink="http://www.w3.org/1999/xlink"
	 x="0px" y="0px" width="366.797px" height="106.993px" viewBox="0 0 366.797 106.993" xml:space="preserve">
<g>
	<rect x="321.043" y="26.767" fill="#331618" width="11.782" height="53.824"/>
	<path fill="#331618" d="M315.819,28.868c-3.998-1.999-8.669-3.111-13.45-3.111c-17.673,0-29.791,13.45-29.791,28.68
		c0,14.788,12.562,27.793,29.568,27.793c4.895,0,9.34-1.335,13.673-3.114V66.667c-3.221,3.331-8.334,5.424-13.341,5.424
		c-11.003,0-17.673-8.874-17.673-17.875c0-9.229,6.448-18.209,17.787-18.209c5.003,0,10.006,1.865,13.227,5.423V28.868"/>
	<polyline fill="#331618" points="227.268,36.159 227.268,26.76 195.809,26.76 195.809,80.593 227.268,80.593 227.268,71.333 
		207.701,71.333 207.701,57.916 226.49,57.916 226.49,48.519 207.701,48.519 207.701,36.159 227.268,36.159 	"/>
	<polygon fill="#331618" points="333.276,51.212 353.125,80.585 366.797,80.585 346.617,51.212 364.254,26.769 350.642,26.769 	"/>
	<path fill="#331618" d="M244.176,35.527c0,0,7.088-0.024,7.547,0.024c3.925,0.411,6.984,3.732,6.984,7.767
		c0,4.312-3.494,7.807-7.806,7.807c-0.046,0-0.089,0-0.132,0c-0.512-0.006-2.873,0.037-3.41,0.037h-1.435l-1.35-0.012l0,0
		l19.626,29.433l13.346,0.001l-16.396-23.207c6.786-2.315,9.607-8.047,9.607-14.635c0-8.803-7.137-15.983-15.937-15.983
		c-0.322,0-22.43-0.005-22.43-0.005v53.829h11.783V35.527z"/>
	<g>
		<polygon fill="#331618" points="161.418,81.175 178.064,42.396 178.066,80.597 189.651,80.597 189.651,26.759 172.45,26.759 
			161.414,54.346 150.372,26.759 133.178,26.759 133.178,80.597 144.763,80.597 144.764,42.396 161.41,81.175 		"/>
	</g>
	<g>
		<g>
			<path fill="#331618" d="M80.245,26.748C80.245,11.976,68.27,0,53.497,0S26.748,11.976,26.748,26.748H80.245z"/>
		</g>
		<g>
			<path fill="#331618" d="M80.245,80.245c0,14.772-11.976,26.748-26.748,26.748S26.748,95.017,26.748,80.245H80.245z"/>
		</g>
		<path fill="#331618" d="M50.953,53.616c-13.58,1.281-24.205,12.714-24.205,26.629C11.976,80.245,0,68.269,0,53.496
			c0-14.772,11.976-26.748,26.748-26.748c0,13.915,10.625,25.348,24.205,26.629V53.616z"/>
		<path fill="#331618" d="M56.043,53.616c13.578,1.282,24.202,12.715,24.202,26.629c14.772,0,26.748-11.976,26.748-26.749
			c0-14.772-11.976-26.748-26.748-26.748c0,13.914-10.624,25.347-24.202,26.628V53.616z"/>
	</g>
</g>
</svg>
