<?xml version="1.0" encoding="utf-8"?>
<!-- Generator: Adobe Illustrator 16.0.0, SVG Export Plug-In . SVG Version: 6.00 Build 0)  -->
<svg version="1.2" baseProfile="tiny" id="Layer_1" xmlns="http://www.w3.org/2000/svg" xmlns:xlink="http://www.w3.org/1999/xlink"
	 x="0px" y="0px" width="505.882px" height="93.231px" viewBox="0 0 505.882 93.231" xml:space="preserve">
<g>
	<g>
		<path fill="#321719" d="M325.775,38.003c-1.102-1.268-2.518-2.295-4.208-3.056c-1.696-0.761-3.736-1.148-6.065-1.148
			c-1.735,0-3.547,0.316-5.385,0.938c-1.528,0.517-2.846,1.335-3.917,2.432l-1.662,1.7V21.856h-9.052v49.881h9.052l-0.001-21.77
			c0.11-2.308,0.843-4.242,2.177-5.771c1.364-1.562,3.249-2.354,5.604-2.354c2.679,0,4.664,0.815,5.901,2.423
			c1.195,1.556,1.802,3.514,1.802,5.823v21.648h9.052V48.303c0-1.995-0.277-3.917-0.826-5.716
			C327.705,40.819,326.874,39.276,325.775,38.003z"/>
		<path fill="#321719" d="M227.921,39.164c-1.719-1.718-3.792-3.082-6.159-4.054c-2.37-0.972-4.965-1.466-7.715-1.466
			c-2.75,0-5.347,0.494-7.717,1.466c-2.37,0.974-4.441,2.338-6.157,4.054c-1.717,1.716-3.081,3.8-4.054,6.197
			c-0.974,2.395-1.468,5.056-1.468,7.911c0,2.853,0.493,5.501,1.465,7.871c0.975,2.373,2.34,4.459,4.058,6.201
			c1.713,1.739,3.784,3.116,6.156,4.092c2.369,0.972,4.966,1.465,7.717,1.465c2.75,0,5.346-0.494,7.715-1.466
			c2.372-0.975,4.442-2.35,6.156-4.09c1.721-1.746,3.086-3.832,4.059-6.201c0.973-2.371,1.466-5.02,1.466-7.872
			c0-2.854-0.494-5.516-1.467-7.911C231,42.964,229.637,40.879,227.921,39.164z M223.528,58.246
			c-0.572,1.419-1.336,2.625-2.271,3.584c-0.933,0.965-2.055,1.708-3.331,2.209c-1.245,0.487-2.551,0.734-3.88,0.734
			c-1.331,0-2.637-0.247-3.882-0.734c-1.269-0.496-2.39-1.239-3.333-2.21c-0.935-0.963-1.697-2.168-2.268-3.583
			c-0.571-1.409-0.862-3.083-0.862-4.974c0-1.886,0.29-3.56,0.862-4.976c0.575-1.419,1.339-2.625,2.271-3.583
			c0.936-0.966,2.057-1.708,3.33-2.206c2.536-0.995,5.221-0.995,7.763,0c1.265,0.496,2.385,1.236,3.33,2.202
			c0.939,0.971,1.702,2.178,2.27,3.587c0.572,1.416,0.861,3.09,0.861,4.976C224.389,55.159,224.099,56.832,223.528,58.246z"/>
		<path fill="#321719" d="M257.169,34.724c-0.951,0.147-1.922,0.421-2.884,0.814c-0.941,0.387-1.847,0.963-2.689,1.711
			c-0.56,0.496-1.059,1.094-1.485,1.781l-1.791,2.888V34.81h-8.74v36.927h9.051V54.902c0-2.139,0.289-3.954,0.858-5.396
			c0.58-1.459,1.352-2.647,2.294-3.532c0.948-0.892,2.077-1.542,3.356-1.931c1.493-0.453,3.137-0.634,4.833-0.545
			c0.537,0.028,1.08,0.081,1.625,0.164v-9.011v-0.065c-0.207-0.021-0.41-0.037-0.611-0.052
			C259.759,34.455,258.512,34.517,257.169,34.724z"/>
		<path fill="#321719" d="M390.097,24.588h-8.974v29.881v6.646c0,3.529,1.03,6.299,3.062,8.232c2.038,1.945,4.868,2.932,8.412,2.932
			c3.583,0,6.596-1.073,7.656-1.501v-7.21c-1.077,0.354-2.909,0.823-5.017,0.823c-1.651,0-2.929-0.377-3.796-1.124
			c-0.893-0.768-1.345-2.093-1.345-3.938v-4.86V42.697h9.534l1.438-7.832V34.81h-10.972V24.588z"/>
		<path fill="#321719" d="M277.628,24.588h-8.974v29.881v6.646c0,3.529,1.03,6.299,3.062,8.232c2.038,1.945,4.868,2.932,8.412,2.932
			c3.583,0,6.596-1.073,7.655-1.501v-7.21c-1.076,0.354-2.908,0.823-5.016,0.823c-1.651,0-2.929-0.377-3.796-1.124
			c-0.893-0.768-1.345-2.093-1.345-3.938v-4.86V42.697h9.533l1.438-7.832V34.81h-10.972V24.588z"/>
		<path fill="#321719" d="M455.28,42.697h9.516l1.449-7.887H455.28V24.588h-8.975v29.881v6.646c0,3.529,1.031,6.299,3.062,8.232
			c2.038,1.945,4.868,2.932,8.413,2.932c3.571,0,6.589-1.071,7.654-1.5v-7.21c-1.083,0.354-2.918,0.822-5.015,0.822
			c-1.652,0-2.929-0.377-3.796-1.124c-0.893-0.768-1.345-2.093-1.345-3.938v-4.86V42.697z"/>
		<path fill="#321719" d="M438.494,66.317v-18.79c0-1.833-0.29-3.619-0.861-5.31c-0.562-1.659-1.478-3.13-2.718-4.373
			c-1.248-1.248-2.911-2.27-4.94-3.038c-2.044-0.771-4.555-1.163-7.46-1.163c-2.497,0-4.719,0.366-6.604,1.085
			c-1.886,0.718-3.492,1.658-4.776,2.792c-1.277,1.13-2.3,2.427-3.039,3.854c-0.493,0.955-0.854,1.92-1.084,2.881l7.967,1.673
			c0.361-1.178,0.995-2.254,1.92-3.2c1.335-1.363,3.25-2.054,5.694-2.054c2.326,0,4.104,0.552,5.285,1.642
			c1.193,1.11,1.798,2.444,1.798,3.965c0,0.827-0.261,1.554-0.773,2.16c-0.521,0.62-1.388,1.01-2.652,1.189l-9.396,1.398
			c-1.534,0.248-2.985,0.651-4.305,1.199c-1.294,0.538-2.444,1.279-3.418,2.203c-0.972,0.927-1.745,2.021-2.301,3.254
			c-0.556,1.231-0.838,2.671-0.838,4.28c0,1.408,0.283,2.771,0.841,4.055c0.554,1.282,1.379,2.439,2.452,3.439
			c1.074,1.002,2.405,1.821,3.954,2.435c1.55,0.614,3.312,0.926,5.238,0.926c2.712,0,4.964-0.543,6.691-1.613
			c1.434-0.886,2.61-1.903,3.499-3.026l1.614-2.036l0.113,2.596c0.019,0.451,0.049,0.932,0.093,1.441
			c0.051,0.604,0.109,1.125,0.173,1.553h8.203c-0.071-0.575-0.142-1.254-0.213-2.063C438.547,68.494,438.494,67.364,438.494,66.317z
			 M429.675,56.922c0,0.877-0.062,1.685-0.184,2.423c-0.123,0.702-0.304,1.337-0.543,1.894c-0.488,1.136-1.152,2.076-1.974,2.795
			c-0.828,0.724-1.789,1.238-2.855,1.529c-1.063,0.288-2.177,0.436-3.305,0.436c-1.771,0-3.123-0.483-4.02-1.438
			c-0.887-0.94-1.337-2.022-1.337-3.215c0-1.561,0.499-2.754,1.48-3.546c0.963-0.774,2.173-1.274,3.598-1.487l9.139-1.362V56.922z"
			/>
		<path fill="#321719" d="M501.084,38.723c-3.171-3.37-7.69-5.079-13.433-5.079c-2.334,0-4.628,0.467-6.817,1.386
			c-2.196,0.926-4.152,2.239-5.812,3.901c-1.667,1.666-3.02,3.726-4.019,6.124c-0.997,2.393-1.503,5.105-1.503,8.062
			c0,3.108,0.519,5.926,1.54,8.376c1.024,2.443,2.426,4.54,4.167,6.23c1.738,1.691,3.782,2.99,6.071,3.86
			c2.299,0.874,4.756,1.317,7.305,1.317c2.253,0,4.34-0.315,6.202-0.938c1.871-0.624,3.521-1.468,4.905-2.507
			c1.389-1.041,2.581-2.284,3.546-3.694c0.515-0.751,0.963-1.558,1.343-2.397l-8.021-1.737c-0.521,0.719-1.104,1.382-1.792,1.928
			c-1.485,1.174-3.539,1.769-6.104,1.769c-1.368,0-2.674-0.237-3.882-0.704c-1.207-0.465-2.28-1.12-3.188-1.947
			c-0.905-0.825-1.657-1.813-2.233-2.936c-0.528-1.03-0.844-2.153-0.938-3.34l-0.084-1.045h27.431l0.039-0.533
			c0.051-0.635,0.076-1.312,0.076-2.012C505.882,46.846,504.268,42.107,501.084,38.723z M478.544,49.563l0.119-1.075
			c0.09-0.812,0.319-1.64,0.681-2.461c0.416-0.945,1.022-1.819,1.8-2.599c0.773-0.775,1.725-1.42,2.827-1.918
			c1.12-0.501,2.411-0.755,3.837-0.755c1.525,0,2.875,0.239,4.01,0.71c1.107,0.459,2.048,1.063,2.797,1.794l0.051,0.05
			c0.759,0.761,1.33,1.647,1.697,2.634c0.312,0.84,0.511,1.7,0.592,2.559l0.102,1.061H478.544z"/>
		<path fill="#321719" d="M360.312,42.944l-7.204-1.483c-1.932-0.415-3.384-1.18-4.319-2.273c-0.931-1.092-1.404-2.431-1.404-3.982
			c0-0.912,0.208-1.801,0.617-2.642c0.412-0.845,0.991-1.599,1.723-2.241c0.733-0.64,1.63-1.165,2.666-1.557
			c1.037-0.391,2.191-0.589,3.435-0.589c1.661,0,3.087,0.257,4.237,0.762c1.15,0.507,2.12,1.137,2.881,1.873
			c0.757,0.734,1.338,1.56,1.728,2.45c0.394,0.908,0.663,1.74,0.8,2.472l0.037,0.197l7.822-2.463l0.153-0.048l-0.032-0.158
			c-0.284-1.423-0.812-2.911-1.569-4.425c-0.759-1.519-1.854-2.928-3.255-4.186c-1.397-1.255-3.162-2.301-5.248-3.106
			c-2.082-0.806-4.646-1.213-7.624-1.213c-2.369,0-4.613,0.408-6.673,1.213c-2.057,0.804-3.894,1.921-5.458,3.317
			c-1.567,1.402-2.817,3.061-3.715,4.932c-0.902,1.875-1.36,3.91-1.36,6.047c0,3.799,1.194,6.955,3.547,9.38
			c2.347,2.417,5.479,4.051,9.312,4.855l7.064,1.484c2.121,0.461,3.766,1.287,4.89,2.457c1.115,1.161,1.681,2.557,1.681,4.15
			c0,1.914-0.751,3.532-2.233,4.81c-1.49,1.285-3.745,1.936-6.702,1.936c-1.76,0-3.329-0.281-4.665-0.834
			c-1.342-0.556-2.501-1.293-3.443-2.19c-0.945-0.899-1.68-1.949-2.184-3.121c-0.509-1.177-0.837-2.431-0.977-3.728l-0.022-0.211
			l-8.116,2.319l-0.144,0.04l0.016,0.149c0.187,1.797,0.715,3.647,1.569,5.499c0.853,1.85,2.092,3.544,3.678,5.035
			c1.587,1.492,3.58,2.717,5.921,3.639c2.342,0.923,5.157,1.391,8.367,1.391c2.882,0,5.459-0.432,7.659-1.285
			c2.198-0.85,4.085-2.004,5.606-3.428c1.518-1.424,2.686-3.084,3.469-4.935c0.783-1.853,1.18-3.778,1.18-5.722
			c0-3.561-1.18-6.69-3.508-9.305C368.187,45.619,364.755,43.841,360.312,42.944z"/>
		<polygon fill="#321719" points="178.897,56.456 156.576,21.584 156.522,21.502 145.482,21.502 145.482,71.737 154.281,71.737 
			154.281,34.382 178.575,71.656 178.628,71.737 187.697,71.737 187.697,21.502 178.897,21.502 		"/>
	</g>
	<polygon fill="#321719" points="0,93.228 67.41,69.748 91.637,93.22 109.986,0.003 	"/>
</g>
</svg>
