<?xml version="1.0" encoding="utf-8"?>
<!-- Generator: Adobe Illustrator 16.0.0, SVG Export Plug-In . SVG Version: 6.00 Build 0)  -->
<svg version="1.2" baseProfile="tiny" id="Layer_1" xmlns="http://www.w3.org/2000/svg" xmlns:xlink="http://www.w3.org/1999/xlink"
	 x="0px" y="0px" width="42.121px" height="30.527px" viewBox="0 0 42.121 30.527" xml:space="preserve">
<g>
	<path fill="#331618" d="M42.121,1.022l-12.503-0.96c0,0-12.651-1.382-15.507,8.96c-2.855,10.34,6.98,12.837,10.108,7.603
		c2.772-4.643-0.235-15.646,17.834-15.351C42.053,1.273,42.091,1.062,42.121,1.022z"/>
	<path fill="#331618" d="M11.966,30.338l12.539,0.183c0,0,12.713,0.598,14.923-9.899c2.211-10.499-7.76-12.382-10.558-6.964
		c-2.482,4.805,1.202,15.601-16.852,16.424C12.018,30.082,11.993,30.295,11.966,30.338z"/>
	<g>
		<path fill="#331618" d="M0.241,25.085c0.204,0.037,0.591,0.1,1.575,0.1c0.367,0,0.551-0.049,0.604-0.301
			c0.05-0.244-0.02-0.307-0.399-0.307H1.616c-0.829,0-1.417-0.144-1.137-1.474c0.269-1.28,1.309-1.449,2.338-1.449
			c0.676,0,1.446,0.094,1.833,0.15l-0.279,1.329C3.946,23.102,3.49,23.04,2.897,23.04c-0.534,0-0.699,0.082-0.748,0.313
			c-0.036,0.17,0.034,0.271,0.426,0.271c1.39,0,1.797,0.169,1.564,1.279c-0.271,1.287-1.098,1.457-2.237,1.457
			c-0.636,0-1.282-0.05-1.903-0.125L0.241,25.085z"/>
		<path fill="#331618" d="M7.323,21.702c1.699,0,2.254,0.539,1.91,2.173c-0.348,1.651-1.141,2.484-2.891,2.484
			c-1.75,0-2.193-0.833-1.846-2.483C4.842,22.242,5.622,21.702,7.323,21.702z M7.52,24.123c0.114-0.545,0.096-0.912-0.515-0.912
			c-0.611,0-0.783,0.367-0.899,0.912c-0.139,0.659,0.031,0.944,0.508,0.944C7.091,25.067,7.382,24.781,7.52,24.123z"/>
		<path fill="#331618" d="M9.935,21.703l3.896-0.001l-0.313,1.493l-2.059,0.001l-0.107,0.507h2.059l-0.274,1.304h-2.059
			l-0.284,1.351H8.954L9.935,21.703z"/>
		<path fill="#331618" d="M14.105,21.702h3.898l-0.314,1.494h-2.06l-0.106,0.507h2.059l-0.275,1.305h-2.059l-0.284,1.35h-1.838
			L14.105,21.702z"/>
		<path fill="#331618" d="M18.275,21.703l3.898-0.001l-0.286,1.356l-2.059,0l-0.104,0.496h2.059l-0.229,1.089h-2.06l-0.104,0.496
			l2.06-0.001l-0.256,1.221h-3.899L18.275,21.703z"/>
	</g>
</g>
</svg>
