<?xml version="1.0" encoding="utf-8"?>
<!-- Generator: Adobe Illustrator 16.0.0, SVG Export Plug-In . SVG Version: 6.00 Build 0)  -->
<svg version="1.2" baseProfile="tiny" id="Layer_1" xmlns="http://www.w3.org/2000/svg" xmlns:xlink="http://www.w3.org/1999/xlink"
	 x="0px" y="0px" width="252.745px" height="215.64px" viewBox="0 0 252.745 215.64" xml:space="preserve">
<g>
	<path fill="#331618" d="M205.7,151.265l-14.772-0.024l-0.028,8.377l14.765,0.052c0.443,0,0.793-0.722,0.793-1.188l0.029-5.946
		C206.481,152.005,206.126,151.259,205.7,151.265z"/>
	<polygon fill="#331618" points="84.966,162.193 95.17,162.216 90.081,151.289 	"/>
	<path fill="#331618" d="M123.217,115.672l-27.474-0.076l-0.03,10.753l27.475,0.077c0.804,0.007,1.49-0.917,1.497-1.569l0.005-7.61
		C124.69,116.609,124.032,115.683,123.217,115.672z"/>
	<path fill="#331618" d="M225.197,64.9c1.48-3.021,2.508-6.215,3.05-9.575c0.173-1.076,0.302-2.168,0.373-3.278
		c0.438-6.831-1.367-13.482-5.38-19.526c0.67,2.294,1.033,4.654,1.064,7.064c0.337,29.976-47.523,57.087-103.424,58.441
		c52.539-4.727,85.657-31.493,89.258-50.526c4.531-24.059-29.52-44.332-69.221-36.736C119.449,14.867,104,24.581,106.133,32.28
		c4.457,16.183,78.761-0.546,83.771,18.012c4.192,15.444-59.236,45.77-115.852,38.766C66.171,88.098,21.71,82.924,20.89,53.01
		c-0.129-4.692,0.76-9.338,2.56-13.849c-3.762,4.838-6.38,9.799-7.692,14.693c-1.013,3.783-1.142,7.207-0.507,10.305
		c0.673,3.283,2.211,6.197,4.491,8.772C7.248,87.335,0,104.426,0,122.737c0,51.227,56.694,92.903,126.368,92.903
		c69.697,0,126.377-41.677,126.377-92.903C252.745,100.891,242.43,80.783,225.197,64.9z M159.633,109.617l12.4,0.035l30.568,26.133
		l0.068-26.011l8.994,0.02l-0.082,31.779l-13.396-0.058l-29.542-25.294l-0.076,25.13l-8.935-0.021V109.617z M142.164,109.602
		l8.958,0.015l-0.081,31.783l-8.936-0.024L142.164,109.602z M37.233,135.049l30.714,0.1c0,0,4.164,0.226,4.181-3.358
		c0.035-3.585-4.141-3.198-4.141-3.198l-0.507,0.009v0.018l-23.112-0.066c-2.469-0.014-9.109-2.645-9.075-9.878
		c0.012-7.275,6.652-9.399,9.099-9.393l33.428,0.096l0.052,6.055l-30.731-0.093c0,0-4.159-0.227-4.171,3.355
		c0,3.588,4.171,3.192,4.171,3.192l0.483-0.012l0.005-0.028l23.125,0.063c2.441,0.021,9.331,2.621,9.307,9.919
		c-0.017,7.235-6.908,9.365-9.354,9.365l-33.422-0.098L37.233,135.049z M72.234,170.999h-0.368l-4.781-0.021l0.069-17.312
		l-9.901,17.281l-0.222,0.023l-4.659-0.042l-9.844-17.571l-0.081,17.538l-0.343,0.022l-4.776-0.011l0.074-25.164h6.757
		l10.677,19.123l10.833-19.047l6.623,0.024L72.234,170.999z M99.242,171.057l-1.904-4.101l-14.585-0.054l-1.921,4.108l-4.801-0.013
		l11.701-24.859l4.759,0.03l11.557,24.905L99.242,171.057z M125.093,171.14l-17.946-0.065l-0.035-4.711l16.518,0.052
		c0,0,2.25,0.192,2.259-2.627c-0.009-2.819-2.235-2.481-2.235-2.481l-0.274-0.029l-0.006,0.034l-12.43-0.034
		c-1.305,0-4.891-2.032-4.863-7.741c0-5.696,3.594-7.333,4.923-7.355l17.955,0.062l0.043,4.729l-16.537-0.04
		c0,0-2.224-0.187-2.254,2.627c0,2.807,2.231,2.481,2.231,2.481h0.279v-0.03l12.413,0.065c1.327,0.011,5.031,2.026,5.014,7.712
		C130.143,169.485,126.426,171.14,125.093,171.14z M127.294,132.583l-31.581-0.097l-0.04,8.783l-8.96-0.018l0.105-31.805
		l8.435,0.009l0.53,0.032l31.581,0.067c2.469,0,6.937,1.426,6.901,7.565v7.926C134.231,131.187,129.746,132.583,127.294,132.583z
		 M147.15,151.021l-0.069,20.165h-4.8l0.048-20.165l-9.274-0.048l0.022-4.717l23.346,0.058l0.052,4.742L147.15,151.021z
		 M182.175,151.207l-16.875-0.058c-0.426,0.012-0.757,0.758-0.787,1.246v3.869l16.17,0.056l0.04,4.719l-16.21-0.059l-0.018,4.288
		c0,0.482,0.373,1.228,0.793,1.228l16.846,0.064l-0.018,4.788l-19.076-0.058c-1.305,0.018-3.717-1.106-3.698-5.912l0.035-13.117
		c0.012-4.805,2.423-5.911,3.732-5.911l19.082,0.046L182.175,151.207z M207.819,171.366l-2.946-6.867l-13.99-0.034l-0.031,6.851
		l-4.786-0.013l0.058-24.884h4.525l0.279,0.012l17.015,0.029c1.311,0.024,3.71,1.125,3.698,5.936l-0.023,6.209
		c0,3.157-1.06,4.729-2.144,5.424l3.158,7.338H207.819z M221.263,147.957h-2.976v8.097h-2.185v-8.097h-2.983v-1.835h8.144V147.957z
		 M231.06,156.053v-7.035h-0.028l-2.435,7.035h-1.683l-2.437-6.966h-0.028v6.966h-2.044v-9.932h3.073l2.319,6.832h0.036l2.195-6.832
		h3.075v9.932H231.06z"/>
	<path fill="#331618" d="M52.989,73.888c38.635,13.662,74.532-3.267,74.84-11.628c0.554-15.363-68.158-1.721-72.067-20.788
		c-2.633-12.884,24.26-31.855,74.566-37.93c10.75-1.307,20.587-1.771,29.54-1.543c-1.652-0.475-2.911-0.775-3.655-0.848
		C77.454-6.416,29.202,24.854,31.333,50.338C32.277,61.619,39.406,69.091,52.989,73.888z"/>
</g>
</svg>
