<?xml version="1.0" encoding="utf-8"?>
<!-- Generator: Adobe Illustrator 22.1.0, SVG Export Plug-In . SVG Version: 6.00 Build 0)  -->
<svg version="1.1" id="Layer_1" xmlns="http://www.w3.org/2000/svg" xmlns:xlink="http://www.w3.org/1999/xlink" x="0px" y="0px"
	 viewBox="0 0 160 69.8" style="enable-background:new 0 0 160 69.8;" xml:space="preserve">
<style type="text/css">
	.st0{fill:#331618;}
</style>
<g>
	<path class="st0" d="M58.7,54c-0.4,0-0.7,0-0.7,0L58.7,54z"/>
	<path class="st0" d="M58.7,54c0.2,0,0.5,0,0.7,0L58.7,54z"/>
	<path class="st0" d="M135.7,47.9c2.5-0.7,4.7-0.7,4.7-0.7s-7.3-0.5-12.4,2.1c-5.1,2.6-6.4,5.5-6.4,5.5c0.4-0.1,1.4-0.2,3.3-0.5
		c2.8-0.4,3.3,0.8,8.2,1.4c4.9,0.6,12.4-0.2,15.2-0.8c1.5-0.3,2.5-0.6,3.1-0.5c0.1-0.1,0.1-0.1,0.2-0.2c0,0,0.4-0.4-1.4-0.1l1.8-1.6
		c0,0-1,0-1.4-0.1c1-0.9,1.1-1,1.3-1.2c0.5,0,1-0.1,1-0.1s0.1-0.2,0.3-0.5c-6.3,0-7.2-0.8-11.5-1.9
		C139.3,48.1,137.3,47.8,135.7,47.9z M150.9,51.2l-1.7,1.5l1.4,0.1l-1.6,1.4c0,0-4.8,1-9.8,0.9c-5-0.1-8-0.6-10.5-1.4
		c-0.5-0.1-1.1-0.2-1.6-0.3c0,0,0,0,0.1,0c-0.3-0.2-0.8-0.6-0.2-1.3c0.3-0.3,0.8-0.7,1.3-1l0.6,0l0.9,0l0.5,0
		c0.4,0.2,0.2,0.4,0.2,0.5c0,0.1,0.5-0.1,0.8-0.3c0.3-0.2,2.9,0.2,3.6,0.2c0.6,0,0.5,0.2,0.4,0.4c0,0.1,0.4-0.1,0.6-0.3
		c0.2-0.2,3.6,0.1,3.7,0c0.2,0-1.9-0.3-2.9-0.4c-1-0.1-0.4-0.6-0.6-0.6c-0.2,0-0.4,0.3-1,0.4c-0.5,0.1-1.7-0.1-2.6-0.3
		c-0.9-0.2-0.2-0.6-0.4-0.6c-0.2-0.1-0.5,0.3-1.2,0.3c-0.5,0-0.7-0.2-0.8-0.4c1-0.5,2-0.8,2.9-1c2.2-0.3,5.6,0,7.4,0.4
		c1.7,0.4,5.8,1.7,10.3,1.9L150.9,51.2z"/>
	<path class="st0" d="M151.6,42.2c-0.5-0.5-1-0.8-1.2-0.7c-0.2,0,0.5,0.6,0.8,1.2c0.3,0.6,0.3,1.2,0.3,1.2s0.2,0.2,0.8,0.4
		c0.6,0.2,0.5-0.2,0.4-0.5C152.6,43.3,152.1,42.7,151.6,42.2z"/>
	<path class="st0" d="M148.1,40.3c-0.6-0.7-1.2-1.1-1.5-1.1c-0.3,0,0.6,0.8,0.9,1.7c0.3,0.9,0.1,1.7,0.1,1.7s0.2,0.4,1.1,0.6
		c0.8,0.2,0.8-0.3,0.8-0.7C149.3,42.1,148.7,41.1,148.1,40.3z"/>
	<path class="st0" d="M138.4,35.1c-0.7-0.6-1.4-0.9-1.7-0.8c-0.2,0.1,0.8,0.7,1.3,1.6c0.5,0.8,0.6,1.7,0.6,1.7s0.3,0.3,1.1,0.4
		c0.8,0.1,0.7-0.3,0.5-0.8C139.9,36.7,139.1,35.8,138.4,35.1z"/>
	<path class="st0" d="M143.6,37.8c-0.6-0.7-1.3-1.1-1.5-1.1c-0.3,0,0.6,0.8,0.9,1.7c0.3,0.9,0.2,1.7,0.2,1.7s0.3,0.4,1.1,0.6
		c0.8,0.2,0.9-0.2,0.7-0.7C144.8,39.5,144.2,38.5,143.6,37.8z"/>
	<path class="st0" d="M133.2,34c-0.8-0.4-1.5-0.6-1.7-0.5c-0.2,0.1,0.8,0.5,1.4,1.1c0.6,0.6,0.7,1.2,0.7,1.2s0.3,0.2,1.2,0.2
		c0.8,0,0.5-0.3,0.4-0.6C134.9,35,134,34.4,133.2,34z"/>
	<path class="st0" d="M128.8,39.7c0,0.2,0.6,0.5,2,0.3c1.1-0.2,2.5-0.3,3.1-0.6c0.5-0.3,1.2-0.8,0.7-1.1c-0.6-0.3-1.4-0.2-1.4-0.2
		s-1,0.9-2.2,1.3C129.8,39.7,128.8,39.6,128.8,39.7z"/>
	<path class="st0" d="M129.3,36.7c-0.6-0.3-1.4-0.1-1.4-0.1s-0.8,0.9-2,1.4c-1.1,0.4-2.1,0.4-2,0.5c0.1,0.2,0.6,0.4,2,0.1
		c1-0.2,2.4-0.5,2.9-0.8C129.3,37.5,129.9,37,129.3,36.7z"/>
	<path class="st0" d="M145.6,52c0.3-0.1-2.4-0.3-3.2-0.4c-0.8-0.1-1.5,0.1-1.5,0.1C141,52.2,145.3,52.1,145.6,52z"/>
	<path class="st0" d="M147.5,55.1c0,0-3.4,2.8-7,3.9c-6.1,1.9-10.9,1.7-10.8,1.7c0.6,0.2,5,0.2,9.6-0.9c6.1-1.5,10.8-5,10.8-5
		S149.3,54.7,147.5,55.1z"/>
	<path class="st0" d="M151,50.3c0,0,1,0.2,1.5,0c0,0,0.9-1.4,1-3.1c0.1-1.1-0.1-2.1-0.1-2.1s-0.2,1.1-0.7,2.6
		C151.9,49.8,151,50.3,151,50.3z"/>
	<path class="st0" d="M150.5,39c0,0,1,1.2,1.5,2.1c0.5,0.9,0.8,2.3,1.2,2.2c0.1,0,0-1.3-0.8-2.4C151.5,39.9,150.5,39,150.5,39z"/>
	<path class="st0" d="M122,58.1c-0.3,0.1-0.5,0.4-0.7,0.7c-0.3-0.9-1-1.2-2-1.2c-0.4,0-0.8,0.1-1.1,0.3c0-0.1,0-0.1,0-0.2
		c0-1.1-0.5-2-1.3-2.6l3.8-0.2l-4.3-0.2c-0.5-0.3-1.2-0.6-1.9-0.7c0.9,0.2,1.4,0.9,2.1,1.6c1.3,1.3,0.5,2.7,0.5,2.7l0.5,0.5
		c0,0,1.3-0.7,2-0.5c0.7,0.2,0.8,1.7,0.8,1.7l1.8,0c0,0-1-0.3-0.6-0.8c0.2-0.3,0.6-0.9,1.4-0.7c0.5,0.1,0.8,0.7,0.9,1.2l-0.1,0.3
		l4.7,0l-4.1-0.5C124.5,59.6,123.8,57.4,122,58.1z"/>
	<path class="st0" d="M137,27.4c0.4-1,0.6-2,0.6-3c0-0.4,0-0.9-0.1-1.3l0,0c-0.4-1.8-1.5-3.3-3.1-4.3c-1.6-1-3.2-1.1-4.3-1.1
		c0,0-6.2,0-12.2,0c7-5.3,23.8-17.8,23.8-17.8H53.4l0,0H7.8L51,3.1L49.6,5H14.7l33.6,1.7l-1.5,1.9H27.1l18.3,2L34.1,25.5H14.7
		l18.4,1.3l-2.6,3.5L0,30.9l29.1,1.4L13.5,52.9c0,0,35.1,0,35.3,0c-1.8,1.9-3.7,3.8-3.7,3.8c-0.3,0.3-0.5,0.6-0.8,0.8H20l23.2,1.7
		c-0.8,1.3-1.2,2.7-1.2,4c0,0.2,0,0.5,0,0.7c0.3,2.7,2.4,5.9,7.6,5.9l39.7,0c1.2,0,2.4-0.2,3.7-0.5c1.1-0.3,2.2-0.7,3.4-1.2
		c1.2-0.5,2.3-1.1,3.3-1.8c0.2-0.2,0.5-0.3,0.7-0.5c1.4,0.9,3.1,1.4,4.9,1.4c1.6,0,3.2-0.5,4.6-1.3c1.2,0.8,2.7,1.2,4.2,1.2
		c1.1,0,2.1-0.3,3.1-0.8c0.5,0.1,0.9,0.2,1.4,0.1c0.9,0,1.8-0.3,2.7-0.8c0,0,0,0,0,0c1,0.1,1.9-0.2,2.8-0.7c0,0,0,0,0.1,0
		c0.6,0.1,1.2,0.1,1.8,0.2c16.8,1.3,32-5.6,34-16.1C161.6,39,152.3,29.5,137,27.4z M55.9,5.1h15.7h2.9l-3.8,1.3L59.9,21.5l4.5-2.3
		L82.2,5.1h13.7H99l-4.2,1.3L82.1,21.5l5.1-2.3l19.4-14.2h16.6h3.2l-4.9,1.3L101,21.7H78.6l-7.9,8l-31,0.6l-2.8,0L55.9,5.1z
		 M63.2,42.5c-1.1,1.1-1.7,2.1-1.9,3.1h-6.4l0,0l-4.5,2.2l1.7-2.2l9.3-11.8l2.7,0.1l7.3,0.3L63.2,42.5z M40.1,45.6h-12l0,0l-4.4,2.2
		l1.7-2.2l9.8-13l2.7,0.1l18.7,0.9L40.1,45.6z M98.4,63.8c-0.9,0.6-1.8,1.1-2.7,1.5c-0.9,0.4-1.9,0.8-2.8,1c-1,0.3-1.9,0.4-2.8,0.4
		l-38-0.5c-0.9,0-1.7-0.1-2.3-0.3l39.6,0c0.8,0,1.7-0.1,2.7-0.4c0.9-0.2,1.9-0.6,2.8-1c1-0.4,1.9-0.9,2.7-1.5
		c0.6-0.4,1.2-0.9,1.8-1.4c0.2,0,0.4,0,0.6,0c0.5,0,1-0.1,1.4-0.2C100.5,62.1,99.2,63.2,98.4,63.8z M98,58.6c-0.9-1.5-0.1-2.6,0.2-3
		c0.4-0.4,1.5-0.5,1.5-0.5s-0.4,1.3,0.4,2c0.8,0.8,1.1,1.1,1.1,1.1s-0.1,0.3,0,0.4c0.1,0.1,0.2,0.4,0.2,0.4S98.9,60.1,98,58.6z
		 M155.6,47.2c-0.4,2.4-1.5,4-1.5,4s-1,0-1.5,0c-0.2,0.2-0.7,0.7-1,0.8c0.4,0,1.4,0,1.4,0l-1.5,1.5c1.7-0.2,1.7,0.2,1.7,0.2
		c-5.5,5.8-14.7,9-24.1,8.6c-2.1-0.1-4.1-0.4-6.1-1c0.1-0.1,0.1-0.1,0.1-0.1l1-0.1l0.9-0.1l2.4-0.2l-4.6,0c0,0,0,0.6-0.7,0.5
		c-0.5-0.1-0.7-0.6-0.7-0.6l-0.8,0c0,0-0.3,0.4-1.5,0.6c-1.2,0.2-1.3-0.6-1.3-0.6l1.9-0.4c0,0-2.9,0-3.2,0c-0.3,0,0.2,0.6,0.2,0.6
		s-0.7,0.9-2.3,1.1c-1.5,0.1-2.2-1.9-2.2-1.9l3.1-0.4l-3.4-0.2l0.4-0.7l-0.1-0.2c0,0-1.1,0.9-2.7,0.8c-1.6-0.1-2.4-2.4-2.4-2.4
		c0.8-0.1,1.3-0.5,1.5-0.9c-0.3,0.1-0.6,0.1-1,0.1c-1.2,0-2.4-0.4-3.1-1c-0.1,1.2,1.7,1.9,1.7,1.9s-0.5,1.7,1.2,2.7
		c1.6,1,3.6,0.4,3.6,0.4s0,0.6-0.5,0.7c-0.5,0.1-1.1,0-1.1,0s-1.5,1.9-4.6,1c-2.5-0.7-2.9-3.1-2.9-3.1s0.5,0,1.4,0
		c1,0,1.7-0.8,1.7-0.8s-2,0.1-3.7-0.8c-1.3-0.7-1.2-1.9-1.2-2.4c-1.3-0.7-2.2-1.9-2.2-3.3c0-0.8,0.3-1.5,0.7-2.1
		c-1,0.9-1.7,2-1.7,3.3c0,0,0,0.1,0,0.1c-1.9-0.9-3.1-2.4-3.1-4.2c0-2.7,2.8-4.9,6.3-4.9c0.9,0,1.7,0.1,2.5,0.4c0,0,0,0,0,0
		c0,0-0.1,0-0.1-0.1c0,0-0.1,0-0.1,0c-0.9-0.4-2-0.7-3-0.7c-3.7,0-6.7,2.8-6.7,6.2c0,2.7,2,5,4.7,5.7c-1.3,0.6-2.1,1.8-2.1,3.1
		c0,0.5,0.1,1,0.3,1.4c-0.2,0.2-0.5,0.4-0.7,0.5c-0.8,0.5-1.6,1-2.5,1.4c-0.9,0.4-1.7,0.7-2.6,0.9c-0.9,0.2-1.7,0.4-2.4,0.4l-38.2,0
		c-0.3,0.9-0.1,1.6,1,1.9c0,0-0.1,0-0.2,0c-0.3,0-0.7,0-1.1,0c-0.3,0-0.5,0-0.5,0c-1.1-0.1-2.2-0.5-1.9-2c0.2-0.7,0.7-1.5,1.6-2.4
		l7.4-7.5l19,0L70.7,54c0,0,0,0,0,0l-4.5,4.6l4.4-1.3h0l9.8,0l9-9.5l0,0l5-1.9l-28.5,0c-0.5,0.7-0.6,1.3-0.5,1.9c0,0,0,0,0,0
		c0,0,0,0-0.1,0c-0.9,0-1.9-0.6-1.9-1.6c0-0.8,0.5-1.7,1.6-2.8l0.7-0.7l5.6-5.6c0.8-0.8,1.5-1.5,2.3-2.3c1.2-1.2,2.4-2.4,3.6-3.6
		c0,0,0,0,0,0l0.8-0.8l5.2-1.9l-5.5,0l0,0l-5,1.9l1.9-1.9l5.4-5.5h48.9c0.7,0,1.4,0.1,1.8,0.3c0.4,0.3,0.4,0.6,0.1,1c0,0,0,0,0,0
		c-0.2,0.4-0.6,0.8-1,1.2l-7.6,7.8l-13.2,0l-5,1.9l1.9-1.9l2.8-2.9l5-1.9l-16.6,0L84.3,41.1h0l4.4-1.3h0l23.2,0h0.2
		c0.7,0,1.2,0.1,1.6,0.4c0.4,0.2,0.5,0.5,0.3,0.9c-0.2,0.6-0.4,0.7-1,1.3c0,0,0,0-0.1,0.1l-0.1,0.1c0,0,0,0-0.1,0.1
		c-0.1,0.1-0.2,0.2-0.2,0.3l-5.2,5.3c-0.1,0-0.3,0.1-0.4,0.1c0-0.1-0.1-0.1-0.1-0.2c0,0,0,0,0,0c-0.7-0.3-1.5-0.5-2.3-0.5
		c1.1,0.3,2,1,2.5,1.8c0.3-0.1,0.7-0.2,1.1-0.2c0.6,0,1.2,0.2,1.6,0.4c0.2,0.2,0.3,0.5,0.4,0.7c0,0.1,0.1,0.2,0.1,0.2
		c0,0,0.1,0.1,0.1,0.1c1.1,0.5,1.9,1.5,1.9,2.5c0,0.4-0.1,0.8-0.3,1.1c0.4-0.1,0.8-0.2,1.1-0.3c0-0.1,0-0.4,0-0.5
		c0-0.6-0.2-1.2-0.4-1.7l9.6-0.3l-10.2-0.4c-0.4-0.4-1-0.7-1.7-0.7l2.8-2.9l14-0.3l-13.2-0.5l1.5-1.5c0.4-0.4,0.7-0.7,0.9-1.1
		l6.5-0.2l-6.3-0.2c0.1-0.2,0.2-0.4,0.3-0.6c0.3-0.8,0.5-1.5,0.3-2.2c-0.1-0.5-0.4-1.2-1.3-1.8c-0.6-0.4-1.4-0.5-2.3-0.5l-4.3,0
		c0.8-0.8,1.7-1.6,2.7-2.3l6.2,0c-0.2,0.2-0.5,0.5-0.9,0.7c-0.7,0.3-1.3,0.3-1.3,0.4c0.1,0.1,0.4,0.3,1.3,0c0.6-0.2,1.5-0.4,1.8-0.6
		c0.2-0.1,0.4-0.3,0.4-0.5h3.1c-0.2,0.3-0.7,0.8-1.4,1.1c-0.9,0.4-1.7,0.4-1.6,0.6c0.1,0.1,0.6,0.3,1.6,0c0.8-0.3,2-0.5,2.3-0.8
		c0.3-0.2,0.6-0.6,0.5-0.8h0.2l0.7-0.7c0.5,0,1,0,1.6,0.1c6.6,0.4,11.1,3.2,15.2,5.8c-0.6-0.1-1.4-0.1-2.4-0.3
		c-2-0.3-5.6-0.4-5.6-0.4c0,0.1,0.7,0.4,1.9,0.8c1.3,0.4,3.3,1.2,5.1,2.2c1.9,1,4.3,2.5,5.6,2.3c0.1,0-0.3-0.3-0.9-0.5c0,0,0,0,0,0
		c0.1,0,0.1,0,0.2,0c0.9,0,1.8-0.3,2.5-0.8c3.6,1,5.6-0.3,5.6-0.3s-2.5,0.8-6.4-1c-3.2-1.6-6-4.7-13.1-7c-2.8-0.9-6.1-1.2-8.9-1.3
		l1.9-1.9c0.2,0.1,0.4,0.2,0.6,0.3c0.7,0.5,1,1.1,1,1.1s0.4,0.2,1.3,0.1c0.9-0.1,0.5-0.4,0.3-0.7c-0.2-0.3-1.4-0.8-2.3-1.2
		c-0.1-0.1-0.3-0.1-0.4-0.1l1.9-2l0.2-0.2l2.5-2.6c0.7-0.7,1.1-1.4,1.4-2c0.4-0.8,0.5-1.5,0.3-2.2c-0.1-0.5-0.4-1.2-1.3-1.8
		c-0.7-0.4-1.5-0.5-2.2-0.5h-0.1h-23.8L130,4L107.5,4l0.5-0.4l25.4-0.7l-23.5,17.9l21.2-0.1c0.8,0,1.7,0.1,2.5,0.6
		c0.1,0.1,0.2,0.2,0.4,0.3c0.8,0.7,1.4,1.7,1.5,2.2c0.1,0.7,0,1.5-0.4,2.4c-0.3,0.7-0.8,1.5-1.5,2.2l-1.3,1.2c0.6,0,1.1,0,1.7,0
		C147.5,30.3,157.1,38.5,155.6,47.2z M142.5,44.2c-0.3-0.2-0.6-0.4-0.9-0.6c-1.3-0.8-4-1.8-4-1.8c0.7,0.1,3.1,0.5,4.9,0.9
		c-0.1,0.2-0.1,0.4-0.2,0.6C142.3,43.6,142.4,43.9,142.5,44.2z"/>
</g>
</svg>
