<?xml version="1.0" encoding="utf-8"?>
<!-- Generator: Adobe Illustrator 16.0.0, SVG Export Plug-In . SVG Version: 6.00 Build 0)  -->
<svg version="1.2" baseProfile="tiny" id="Layer_1" xmlns="http://www.w3.org/2000/svg" xmlns:xlink="http://www.w3.org/1999/xlink"
	 x="0px" y="0px" width="558.66px" height="160.271px" viewBox="0 0 558.66 160.271" xml:space="preserve">
<g>
	<path fill="#331819" d="M184.252,20.977c-5.333,0-15.385,1.846-19.692,5.539c-1.642,1.436-3.283,1.846-4.309-3.898h-20.719v84.517
		h20.924V55.851c0-6.155,5.745-13.54,23.796-13.54V20.977L184.252,20.977z"/>
	<path fill="#331819" d="M538.966,26.516c-1.641,1.436-3.281,1.846-4.308-3.898H513.94v84.517h20.924V55.851
		c0-6.155,5.743-13.54,23.796-13.54V20.977C553.326,20.977,543.274,22.823,538.966,26.516L538.966,26.516z"/>
	<polygon fill="#331819" points="402.139,107.082 424.293,107.082 424.293,0 402.139,0 402.139,107.082 	"/>
	<path fill="#331819" d="M455.96,45.802c9.847-8.205,19.283-8,26.462-2.256l-33.939,24.65
		C447.397,60.84,448.795,51.773,455.96,45.802L455.96,45.802z M474.217,89.701c-7.362,0.141-13.027-2.453-17.258-6.115
		l53.409-39.451c-5.79-15.359-20.817-23.932-37.587-23.932c-24.674,0-44.677,20.003-44.677,44.677
		c0,24.674,20.003,44.678,44.677,44.678c13.379,0,25.384-5.883,33.572-15.199l-7.931-17.375
		C490.628,84.574,485.089,89.496,474.217,89.701L474.217,89.701z"/>
	<polygon fill="#331819" points="120.211,2.071 98.467,56.638 72.619,1.661 46.771,57.458 24.617,2.071 0,2.071 45.541,113.256 
		73.029,54.176 99.698,112.846 144.828,2.071 120.211,2.071 	"/>
	<path fill="#331819" d="M207.663,90.1c-7.05,0-12.765-4.678-12.765-10.445c0-5.768,5.715-10.444,12.765-10.444
		c7.049,0,12.765,4.676,12.765,10.444C220.428,85.422,214.712,90.1,207.663,90.1L207.663,90.1z M193.508,22.625l-6.154,19.693
		h32.822v11.283c-2.872-1.846-7.795-2.84-12.513-2.958c-22.976,0-33.363,12.989-33.363,29.011c0,16.021,10.182,29.012,33.363,29.012
		c3.077-0.088,8.616-1.523,11.487-4.395l2.462,2.871H241.1V22.625H193.508L193.508,22.625z"/>
	<path fill="#331819" d="M353.862,71.575c-7.931,0-14.361-6.43-14.361-14.361s6.431-14.36,14.361-14.36s14.361,6.429,14.361,14.36
		S361.793,71.575,353.862,71.575L353.862,71.575z M317.58,91.943V63.365c1.367,6.954,5.009,13.111,9.615,18.159
		C323.708,84.381,320.102,88.139,317.58,91.943L317.58,91.943z M381.734,80.225c5.173-6.269,8.392-14.249,8.392-23.011
		c0-5.88-1.398-11.433-3.884-16.345l6.904-0.169l5.642-19.75h-44.926c-18.027,0-33.469,13.321-36.377,30.587
		c-1.656-29.102-25.317-28.916-30.267-28.916c-5.128,0-10.667,2.256-14.563,4.718c-1.641,1.436-4.103,1.026-5.129-4.718h-20.719
		v84.517h21.95V55.854c0-8.411,10.052-11.283,13.128-11.283c3.077,0,13.949,1.025,13.949,12.924v49.643h21.745V92.531l17.516,13.148
		c3.73-7.371,11.377-12.426,20.202-12.426c12.497,0,22.63,10.133,22.63,22.629c0,12.498-10.133,22.631-22.63,22.631
		c-7.506,0-14.157-3.656-18.274-9.283l-15.665,15.26c8.143,9.65,20.326,15.781,33.939,15.781c24.515,0,44.388-19.873,44.388-44.389
		C399.686,101.275,392.626,88.312,381.734,80.225L381.734,80.225z"/>
	<path fill="#331819" d="M437.154,15.955c-3.899,0-6.94-3.019-6.94-7.12c0-4.033,3.041-7.075,6.94-7.075
		c3.852,0,6.894,3.042,6.894,7.075C444.048,12.936,441.006,15.955,437.154,15.955L437.154,15.955z M437.154,0.341
		c-4.688,0-8.652,3.604-8.652,8.494c0,4.934,3.965,8.539,8.652,8.539c4.64,0,8.607-3.605,8.607-8.539
		C445.762,3.946,441.794,0.341,437.154,0.341L437.154,0.341z"/>
	<path fill="#331819" d="M435.354,8.249V5.207h2.028c1.035,0,2.14,0.226,2.14,1.442c0,1.51-1.126,1.6-2.389,1.6H435.354
		L435.354,8.249z M438.53,9.443c1.442-0.181,2.546-0.946,2.546-2.704c0-1.938-1.149-2.794-3.47-2.794h-3.74v9.823h1.487V9.511h1.713
		l2.591,4.258h1.667L438.53,9.443L438.53,9.443z"/>
</g>
</svg>
