<?xml version="1.0" encoding="utf-8"?>
<!-- Generator: Adobe Illustrator 16.0.0, SVG Export Plug-In . SVG Version: 6.00 Build 0)  -->
<svg version="1.2" baseProfile="tiny" id="Layer_1" xmlns="http://www.w3.org/2000/svg" xmlns:xlink="http://www.w3.org/1999/xlink"
	 x="0px" y="0px" width="40px" height="40px" viewBox="0 0 40 40" xml:space="preserve">
<g>
	<path fill="#B4C9CC" d="M20.657,20.075c0.124-0.041,0.248-0.08,0.374-0.113c-0.238-0.54-0.499-1.082-0.77-1.615
		c-4.886,1.463-9.574,1.357-9.743,1.354c-0.002,0.1-0.007,0.199-0.007,0.299c0,2.438,0.919,4.661,2.432,6.343
		c0-0.001-0.004-0.006-0.004-0.006S15.536,21.729,20.657,20.075z"/>
	<path fill="#B4C9CC" d="M26.268,12.88c-1.671-1.473-3.865-2.369-6.267-2.369c-0.771,0-1.52,0.095-2.237,0.269
		c0.143,0.188,1.924,2.556,3.546,5.535C24.893,14.974,26.244,12.915,26.268,12.88z"/>
	<path fill="#B4C9CC" d="M21.615,21.554c-5.614,1.956-7.437,5.904-7.446,5.925c1.61,1.258,3.632,2.011,5.833,2.011
		c1.313,0,2.566-0.268,3.704-0.752c-0.141-0.83-0.691-3.735-2.026-7.204C21.658,21.54,21.635,21.545,21.615,21.554z"/>
	<path fill="#B4C9CC" d="M17.727,10.787c-0.011,0.003-0.02,0.005-0.03,0.009c0.017-0.004,0.028-0.006,0.028-0.006
		S17.727,10.788,17.727,10.787z"/>
	<path fill="#B4C9CC" d="M19.476,16.886c-1.643-2.918-3.398-5.298-3.524-5.467c-2.647,1.25-4.622,3.687-5.237,6.625
		C10.964,18.049,14.919,18.098,19.476,16.886z"/>
	<path fill="#B4C9CC" d="M20,0C8.954,0,0,8.954,0,20s8.954,20,20,20s20-8.954,20-20S31.046,0,20,0z M30.887,22.239
		c-0.146,0.713-0.366,1.416-0.65,2.086c-0.277,0.659-0.623,1.296-1.024,1.89c-0.396,0.587-0.854,1.139-1.355,1.644
		c-0.503,0.501-1.056,0.957-1.646,1.354c-0.593,0.401-1.228,0.747-1.886,1.024c-0.672,0.285-1.375,0.502-2.088,0.646
		c-0.732,0.152-1.484,0.228-2.237,0.228c-0.754,0-1.507-0.075-2.238-0.228c-0.714-0.145-1.417-0.361-2.088-0.646
		c-0.659-0.277-1.293-0.623-1.888-1.024c-0.589-0.397-1.142-0.854-1.644-1.354c-0.502-0.505-0.958-1.057-1.355-1.644
		c-0.401-0.594-0.748-1.23-1.025-1.89c-0.285-0.67-0.503-1.373-0.649-2.086c-0.149-0.732-0.225-1.484-0.225-2.24
		c0-0.752,0.076-1.505,0.225-2.235c0.146-0.714,0.365-1.417,0.649-2.089c0.277-0.659,0.624-1.293,1.025-1.887
		c0.397-0.588,0.853-1.142,1.355-1.644c0.502-0.503,1.055-0.959,1.644-1.356c0.594-0.402,1.229-0.745,1.888-1.025
		c0.672-0.282,1.375-0.502,2.088-0.646c0.731-0.15,1.484-0.228,2.238-0.228c0.752,0,1.505,0.077,2.237,0.228
		c0.713,0.145,1.417,0.364,2.088,0.646c0.658,0.28,1.293,0.623,1.886,1.025c0.59,0.397,1.143,0.854,1.646,1.356
		c0.501,0.502,0.959,1.056,1.355,1.644c0.401,0.594,0.747,1.228,1.024,1.887c0.284,0.672,0.503,1.375,0.65,2.089
		c0.148,0.73,0.224,1.483,0.224,2.235C31.111,20.755,31.036,21.507,30.887,22.239z"/>
	<path fill="#B4C9CC" d="M22.042,17.729c0.221,0.451,0.434,0.911,0.631,1.377c0.07,0.163,0.137,0.326,0.205,0.488
		c3.26-0.41,6.472,0.28,6.609,0.312c-0.022-2.251-0.829-4.316-2.159-5.933C27.311,14.001,25.79,16.199,22.042,17.729z"/>
	<path fill="#B4C9CC" d="M23.456,21.093c1.245,3.42,1.751,6.205,1.847,6.777c2.13-1.438,3.645-3.719,4.067-6.363
		C29.174,21.443,26.52,20.603,23.456,21.093z"/>
</g>

<a xmlns="http://www.w3.org/2000/svg" id="anchor" xlink:href="http://www.dribbble.com/DanDraper" xmlns:xlink="http://www.w3.org/1999/xlink" target="_blank">
    <rect x="0" y="0" width="100%" height="100%" fill-opacity="0"/>
</a>

</svg>
