<?xml version="1.0" encoding="utf-8"?>
<!-- Generator: Adobe Illustrator 16.0.0, SVG Export Plug-In . SVG Version: 6.00 Build 0)  -->
<svg version="1.2" baseProfile="tiny" id="Layer_1" xmlns="http://www.w3.org/2000/svg" xmlns:xlink="http://www.w3.org/1999/xlink"
	 x="0px" y="0px" width="40px" height="40px" viewBox="0 0 40 40" xml:space="preserve">
<path fill="#B4C9CC" d="M20,0C8.954,0,0,8.954,0,20s8.954,20,20,20s20-8.954,20-20S31.046,0,20,0z M31.111,29.885
	c0,0.678-0.549,1.227-1.227,1.227h-5.662v-8.605h2.888l0.433-3.354h-3.32V17.01c0-0.971,0.269-1.632,1.661-1.632h1.776v-3.001
	c-0.308-0.041-1.361-0.131-2.588-0.131c-2.562,0-4.314,1.562-4.314,4.432v2.474h-2.896v3.354h2.896v8.605H10.115
	c-0.678,0-1.227-0.549-1.227-1.227v-19.77c0-0.678,0.549-1.227,1.227-1.227h19.77c0.678,0,1.227,0.549,1.227,1.227V29.885z"/>

<a xmlns="http://www.w3.org/2000/svg" id="anchor" xlink:href="http://www.facebook.com/DanDraperDesign" xmlns:xlink="http://www.w3.org/1999/xlink" target="_blank">
    <rect x="0" y="0" width="100%" height="100%" fill-opacity="0"/>
</a>
	
</svg>
