<?xml version="1.0" encoding="utf-8"?>
<!-- Generator: Adobe Illustrator 16.0.0, SVG Export Plug-In . SVG Version: 6.00 Build 0)  -->
<svg version="1.2" baseProfile="tiny" id="Layer_1" xmlns="http://www.w3.org/2000/svg" xmlns:xlink="http://www.w3.org/1999/xlink" x="0px" y="0px" width="40px" height="40px" viewBox="0 0 40 40" xml:space="preserve">
	
<g>
	<path d="M28.661,13.446c-0.201-0.519-0.442-0.889-0.831-1.277c-0.389-0.39-0.759-0.63-1.277-0.831
		c-0.392-0.153-0.98-0.333-2.063-0.383c-1.171-0.054-1.523-0.064-4.49-0.064c-2.967,0-3.319,0.011-4.49,0.064
		c-1.083,0.05-1.671,0.229-2.063,0.383c-0.519,0.201-0.889,0.441-1.277,0.831c-0.389,0.389-0.63,0.759-0.831,1.277
		c-0.153,0.392-0.334,0.98-0.383,2.063c-0.053,1.172-0.064,1.522-0.064,4.49c0,2.967,0.011,3.318,0.064,4.49
		c0.049,1.083,0.23,1.671,0.383,2.062c0.201,0.519,0.442,0.889,0.831,1.277s0.759,0.63,1.277,0.831
		c0.392,0.151,0.98,0.333,2.063,0.384c1.171,0.053,1.523,0.064,4.49,0.064c2.967,0,3.318-0.012,4.49-0.064
		c1.083-0.051,1.671-0.232,2.063-0.384c0.519-0.201,0.889-0.442,1.277-0.831s0.629-0.759,0.831-1.277
		c0.153-0.392,0.334-0.979,0.383-2.062c0.053-1.172,0.064-1.523,0.064-4.49c0-2.968-0.011-3.318-0.064-4.49
		C28.995,14.427,28.814,13.838,28.661,13.446z M20,25.705c-3.151,0-5.706-2.554-5.706-5.705s2.555-5.705,5.706-5.705
		c3.151,0,5.706,2.554,5.706,5.705S23.151,25.705,20,25.705z M25.931,15.401c-0.737,0-1.333-0.597-1.333-1.332
		c0-0.737,0.597-1.334,1.333-1.334c0.736,0,1.333,0.597,1.333,1.334C27.264,14.805,26.667,15.401,25.931,15.401z"/>
	<circle cx="20" cy="20" r="3.704"/>
	<path d="M20,0C8.954,0,0,8.954,0,20s8.954,20,20,20c11.046,0,20-8.954,20-20S31.046,0,20,0z M31.044,24.581
		c-0.054,1.183-0.242,1.99-0.516,2.697c-0.284,0.729-0.664,1.351-1.282,1.968c-0.618,0.617-1.237,0.997-1.968,1.281
		c-0.707,0.275-1.515,0.462-2.696,0.517c-1.186,0.054-1.564,0.067-4.582,0.067s-3.396-0.014-4.582-0.067
		c-1.182-0.055-1.99-0.241-2.696-0.517c-0.731-0.284-1.351-0.664-1.968-1.281c-0.618-0.617-0.998-1.238-1.282-1.968
		c-0.275-0.707-0.462-1.515-0.516-2.697C8.901,23.396,8.889,23.017,8.889,20c0-3.019,0.013-3.396,0.067-4.581
		c0.054-1.183,0.241-1.99,0.516-2.697c0.284-0.731,0.664-1.351,1.282-1.969c0.618-0.617,1.237-0.997,1.968-1.28
		c0.707-0.275,1.515-0.463,2.696-0.517C16.604,8.902,16.982,8.889,20,8.889s3.396,0.014,4.582,0.067
		c1.182,0.054,1.99,0.241,2.696,0.517c0.731,0.283,1.351,0.663,1.968,1.28c0.618,0.618,0.998,1.237,1.282,1.969
		c0.274,0.707,0.462,1.515,0.516,2.697c0.055,1.185,0.067,1.562,0.067,4.581C31.111,23.017,31.099,23.396,31.044,24.581z"/>
</g>

<a xmlns="http://www.w3.org/2000/svg" id="anchor" xlink:href="http://www.instagram.com/drap3r_dan" xmlns:xlink="http://www.w3.org/1999/xlink" target="_blank">
	<rect x="0" y="0" width="100%" height="100%" fill-opacity="0"/>
</a>

</svg>