<?xml version="1.0" encoding="utf-8"?>
<!-- Generator: Adobe Illustrator 16.0.0, SVG Export Plug-In . SVG Version: 6.00 Build 0)  -->
<svg version="1.2" baseProfile="tiny" id="Layer_1" xmlns="http://www.w3.org/2000/svg" xmlns:xlink="http://www.w3.org/1999/xlink"
	 x="0px" y="0px" width="40px" height="40px" viewBox="0 0 40 40" xml:space="preserve">
<path fill="#B4C9CC" d="M20,0C8.954,0,0,8.954,0,20s8.954,20,20,20s20-8.954,20-20S31.046,0,20,0z M14.691,28.622h-3.697V16.908
	h3.697V28.622z M12.748,15.442h-0.026c-1.338,0-2.205-0.896-2.205-2.03c0-1.157,0.893-2.034,2.258-2.034
	c1.363,0,2.202,0.874,2.229,2.03C15.004,14.544,14.138,15.442,12.748,15.442z M29.483,28.622h-4.191V22.56
	c0-1.586-0.656-2.669-2.098-2.669c-1.104,0-1.717,0.73-2.002,1.435c-0.107,0.253-0.091,0.606-0.091,0.957v6.34h-4.152
	c0,0,0.053-10.737,0-11.714h4.152v1.838c0.246-0.804,1.573-1.95,3.69-1.95c2.627,0,4.691,1.684,4.691,5.312V28.622z"/>

<a xmlns="http://www.w3.org/2000/svg" id="anchor" xlink:href="http://www.linkedin.com/in/dandraperdesign" xmlns:xlink="http://www.w3.org/1999/xlink" target="_blank">
    <rect x="0" y="0" width="100%" height="100%" fill-opacity="0"/>
</a>

</svg>
