<?xml version="1.0" encoding="utf-8"?>
<!-- Generator: Adobe Illustrator 16.0.0, SVG Export Plug-In . SVG Version: 6.00 Build 0)  -->
<svg version="1.2" baseProfile="tiny" id="Layer_1" xmlns="http://www.w3.org/2000/svg" xmlns:xlink="http://www.w3.org/1999/xlink"
	 x="0px" y="0px" width="40px" height="40px" viewBox="0 0 40 40" xml:space="preserve">
<path fill="#B4C9CC" d="M20,0C8.954,0,0,8.954,0,20s8.954,20,20,20c11.047,0,20-8.954,20-20S31.046,0,20,0z M29.95,16.465
	c0.009,0.199,0.013,0.402,0.013,0.605c0,6.179-4.585,13.301-12.972,13.301c-2.574,0-4.971-0.773-6.989-2.099
	c0.356,0.044,0.72,0.064,1.088,0.064c2.135,0,4.102-0.748,5.662-2.002c-1.996-0.037-3.678-1.39-4.259-3.246
	c0.278,0.056,0.565,0.084,0.858,0.084c0.416,0,0.819-0.055,1.202-0.165c-2.087-0.428-3.659-2.317-3.659-4.583v-0.058
	c0.616,0.348,1.32,0.561,2.066,0.582c-1.224-0.838-2.028-2.27-2.028-3.891c0-0.855,0.224-1.66,0.617-2.353
	c2.25,2.832,5.608,4.69,9.398,4.886c-0.079-0.342-0.118-0.697-0.118-1.064c0-2.582,2.042-4.674,4.558-4.674
	c1.312,0,2.498,0.566,3.327,1.476c1.041-0.21,2.016-0.599,2.897-1.134c-0.34,1.092-1.064,2.008-2.005,2.586
	c0.923-0.113,1.802-0.365,2.618-0.736C31.615,14.982,30.841,15.805,29.95,16.465z"/>

<a xmlns="http://www.w3.org/2000/svg" id="anchor" xlink:href="http://www.twitter.com/macobyte" xmlns:xlink="http://www.w3.org/1999/xlink" target="_blank">
    <rect x="0" y="0" width="100%" height="100%" fill-opacity="0"/>
</a>

</svg>
